<?xml version="1.0" encoding="UTF-8"?>
<svg version="1.1" xmlns="http://www.w3.org/2000/svg" width="360" height="360">
<path d="M0 0 C118.8 0 237.6 0 360 0 C360 118.8 360 237.6 360 360 C241.2 360 122.4 360 0 360 C0 241.2 0 122.4 0 0 Z " fill="#FEFEFE" transform="translate(0,0)"/>
<path d="M0 0 C3.73210035 -0.34717213 5.54070458 -0.2922789 8.75 1.75 C12.08872143 5.08872143 13.1228717 7.33978237 13.125 12.0390625 C13.09325846 13.56794663 13.05128702 15.09664669 13 16.625 C12.90646263 19.44047492 12.90654122 22.17871301 13 25 C13.99 25.99 13.99 25.99 15 27 C15.125 30.125 15.125 30.125 15 33 C15.886875 33.061875 16.77375 33.12375 17.6875 33.1875 C24.15710112 34.18180345 32.47691001 35.76877862 36.65625 41.12109375 C37.67163422 43.4018621 38.39502134 45.58008534 39 48 C40.28206727 52.86795376 40.28206727 52.86795376 44 56 C44 56.66 44 57.32 44 58 C44.66 58 45.32 58 46 58 C45.91298828 58.83917969 45.91298828 58.83917969 45.82421875 59.6953125 C45.42270497 66.83078596 47.32360894 72.46057707 49.90625 78.99609375 C51 82 51 82 51 85 C47.30990657 84.35980835 43.80129351 83.35379091 40.22973633 82.23510742 C26.81791308 78.07271325 14.22222662 76.76174474 0.19848633 76.98510742 C-1.17786987 77.0060144 -1.17786987 77.0060144 -2.58203125 77.02734375 C-3.40936768 77.04531006 -4.2367041 77.06327637 -5.08911133 77.08178711 C-7 77 -7 77 -8 76 C-8.33 76.66 -8.66 77.32 -9 78 C-11.46995575 78.60096247 -13.87308473 79.08287243 -16.375 79.5 C-17.09727783 79.62890625 -17.81955566 79.7578125 -18.5637207 79.890625 C-21.81535483 80.46850066 -25.07060356 81.01125684 -28.33203125 81.53125 C-29.27433594 81.6859375 -30.21664062 81.840625 -31.1875 82 C-32.00605469 82.12375 -32.82460937 82.2475 -33.66796875 82.375 C-36.08477864 82.90170051 -36.08477864 82.90170051 -38.24902344 84.39941406 C-41.22928513 86.13340374 -44.07012825 87.16890916 -47.34765625 88.234375 C-48.58394775 88.64051025 -49.82023926 89.04664551 -51.09399414 89.46508789 C-52.41681378 89.89344025 -53.73964937 90.32174335 -55.0625 90.75 C-57.77176707 91.63648707 -60.47965582 92.52714626 -63.1875 93.41796875 C-63.85713272 93.6376683 -64.52676544 93.85736786 -65.21669006 94.08372498 C-71.83858089 96.26204054 -78.41326261 98.56683977 -84.97094727 100.93066406 C-88.63052602 102.23596076 -92.14691019 103.38197965 -96 104 C-96.33 100.7 -96.66 97.4 -97 94 C-97.33 97.63 -97.66 101.26 -98 105 C-100.8952173 105.81474962 -103.79112828 106.62687322 -106.6875 107.4375 C-107.50412109 107.66759766 -108.32074219 107.89769531 -109.16210938 108.13476562 C-115.61000217 109.93599883 -121.24980969 111.13235667 -128 111 C-126.12088764 93.62252059 -123.26165347 76.46307297 -120.06958008 59.28515625 C-119.94095078 58.59142914 -119.81232147 57.89770203 -119.67979431 57.18295288 C-119.32719717 55.28521348 -118.9720355 53.38795108 -118.61669922 51.49072266 C-118.18391564 49.04102367 -117.81036132 46.5804751 -117.48095703 44.11474609 C-117 41 -117 41 -116 40 C-108.3553694 39.06604061 -100.69169942 38.88519852 -93 39 C-92.505 43.455 -92.505 43.455 -92 48 C-91.505 43.05 -91.505 43.05 -91 38 C-86.05 37.505 -86.05 37.505 -81 37 C-81 36.34 -81 35.68 -81 35 C-82.64573233 34.97231478 -84.29161069 34.95330415 -85.9375 34.9375 C-86.85402344 34.92589844 -87.77054688 34.91429687 -88.71484375 34.90234375 C-91.26196034 34.97806065 -93.65541018 35.17475195 -96.17578125 35.484375 C-111.65738042 37.29479505 -135.44609816 39.03593456 -149 30 C-148.31421875 30.0721875 -147.6284375 30.144375 -146.921875 30.21875 C-138.45435938 30.96956419 -129.9972667 31.1710852 -121.5 31.25 C-119.85789551 31.2819043 -119.85789551 31.2819043 -118.18261719 31.31445312 C-95.58641861 31.40527907 -73.08704008 25.91169546 -51.01049805 21.68579102 C-23.77351696 16.4879977 -23.77351696 16.4879977 -10.55760193 15.69761658 C-5.41535987 15.3486428 -1.63461367 14.28625511 3 12 C3.2954439 6.97745369 2.98514628 4.10457614 0 0 Z " fill="#F3F0ED" transform="translate(249,122)"/>
<path d="M0 0 C3.83235332 2.51264067 7.5091845 5.18433747 11.16015625 7.953125 C17.91652867 13.00714562 24.73046028 17.95188742 31.66015625 22.765625 C38.05320895 27.21331618 44.41414797 31.69867868 50.72265625 36.265625 C51.44952637 36.7915625 52.17639648 37.3175 52.92529297 37.859375 C56.78162931 40.65339982 60.63080815 43.45705663 64.4765625 46.265625 C65.2814209 46.85142334 66.0862793 47.43722168 66.91552734 48.04077148 C68.44543995 49.15439528 69.97326712 50.27089238 71.49853516 51.39086914 C75.73206876 54.46931302 80.003425 57.19225419 84.59765625 59.703125 C84.59765625 60.363125 84.59765625 61.023125 84.59765625 61.703125 C83.97117187 61.74050781 83.3446875 61.77789062 82.69921875 61.81640625 C81.88195312 61.88214844 81.0646875 61.94789062 80.22265625 62.015625 C79.41054688 62.07363281 78.5984375 62.13164063 77.76171875 62.19140625 C75.21844287 62.53303028 75.21844287 62.53303028 73.59765625 65.703125 C70.97265625 65.890625 70.97265625 65.890625 68.59765625 65.703125 C69.09265625 66.21875 69.58765625 66.734375 70.09765625 67.265625 C72.15786763 70.61346849 72.08891084 72.84326747 71.59765625 76.703125 C67.81209814 80.75908011 63.04214759 80.78058856 57.76171875 81.14599609 C36.49004722 82.71033629 15.41180777 87.37322191 -5.49047852 91.47021484 C-26.31409591 95.53426173 -46.14573703 97.15872385 -67.40234375 96.703125 C-65.42234375 96.208125 -65.42234375 96.208125 -63.40234375 95.703125 C-63.40234375 95.043125 -63.40234375 94.383125 -63.40234375 93.703125 C-64.06234375 93.373125 -64.72234375 93.043125 -65.40234375 92.703125 C-65.42711748 88.64633123 -65.44523868 84.58956694 -65.45727539 80.53271484 C-65.46229493 79.15347527 -65.46911194 77.77424098 -65.4777832 76.39501953 C-65.48995295 74.40920317 -65.49506008 72.42334751 -65.5 70.4375 C-65.50785522 68.64650879 -65.50785522 68.64650879 -65.51586914 66.81933594 C-65.42176321 64.23617883 -65.1686053 62.15304081 -64.40234375 59.703125 C-65.88734375 60.198125 -65.88734375 60.198125 -67.40234375 60.703125 C-68.81059268 60.78334499 -70.22231606 60.81078477 -71.6328125 60.80078125 C-72.43525391 60.79755859 -73.23769531 60.79433594 -74.06445312 60.79101562 C-74.89783203 60.78263672 -75.73121094 60.77425781 -76.58984375 60.765625 C-77.85731445 60.75885742 -77.85731445 60.75885742 -79.15039062 60.75195312 C-81.2344053 60.74017903 -83.31838352 60.7222439 -85.40234375 60.703125 C-81.22922664 56.2378897 -76.59097755 52.72375083 -71.65234375 49.140625 C-70.81396973 48.52783691 -69.9755957 47.91504883 -69.11181641 47.28369141 C-61.62853913 41.83015971 -54.07423892 36.4794001 -46.49072266 31.16650391 C-35.40728724 23.40006576 -24.38514402 15.55388233 -13.42578125 7.61328125 C-12.41016113 6.88842529 -12.41016113 6.88842529 -11.37402344 6.14892578 C-10.05632083 5.1826758 -8.76451435 4.180118 -7.50097656 3.14404297 C-3.0856414 -0.38131503 -3.0856414 -0.38131503 0 0 Z " fill="#FCFBFB" transform="translate(181.40234375,57.296875)"/>
<path d="M0 0 C0.13986757 8.69904119 -0.22718023 17.20927345 -1.09375 25.86328125 C-1.20473022 27.02127731 -1.31571045 28.17927338 -1.43005371 29.37236023 C-1.78092608 33.01965998 -2.14030491 36.6660609 -2.5 40.3125 C-2.74145201 42.80658584 -2.98234244 45.30072611 -3.22265625 47.79492188 C-3.80862291 53.86392478 -4.40154893 59.93221612 -5 66 C-7.8952173 66.81474962 -10.79112828 67.62687322 -13.6875 68.4375 C-14.50412109 68.66759766 -15.32074219 68.89769531 -16.16210938 69.13476562 C-22.61000217 70.93599883 -28.24980969 72.13235667 -35 72 C-33.12088764 54.62252059 -30.26165347 37.46307297 -27.06958008 20.28515625 C-26.94095078 19.59142914 -26.81232147 18.89770203 -26.67979431 18.18295288 C-26.32719717 16.28521348 -25.9720355 14.38795108 -25.61669922 12.49072266 C-25.18391564 10.04102367 -24.81036132 7.5804751 -24.48095703 5.11474609 C-24 2 -24 2 -23 1 C-15.35832173 0.0664013 -7.68893112 -0.12492805 0 0 Z " fill="#683A1A" transform="translate(156,161)"/>
<path d="M0 0 C3.83235332 2.51264067 7.5091845 5.18433747 11.16015625 7.953125 C17.91652867 13.00714562 24.73046028 17.95188742 31.66015625 22.765625 C41.05423522 29.30115101 50.33734259 35.97993813 59.59765625 42.703125 C62.84631335 45.05915069 66.09667408 47.41280908 69.34765625 49.765625 C70.45584717 50.57012085 70.45584717 50.57012085 71.58642578 51.39086914 C74.72466066 53.66234999 77.86565322 55.89886134 81.11328125 58.01171875 C81.933125 58.56988281 82.75296875 59.12804687 83.59765625 59.703125 C83.59765625 60.033125 83.59765625 60.363125 83.59765625 60.703125 C76.14400305 61.79458611 68.89813079 62.58386878 62.3515625 58.265625 C58.70802006 55.52683172 55.27974338 52.53324992 51.83496094 49.55078125 C48.03841684 46.41544234 43.94542766 43.73742506 39.84765625 41.015625 C33.35101675 36.64163702 27.1097998 32.09139222 20.9375 27.26953125 C16.86792447 24.11658335 12.71380818 21.08443537 8.53515625 18.078125 C7.80796387 17.54437256 7.08077148 17.01062012 6.33154297 16.46069336 C5.64463379 15.97093018 4.95772461 15.48116699 4.25 14.9765625 C3.3372229 14.31793213 3.3372229 14.31793213 2.40600586 13.64599609 C0.34641643 12.39490587 0.34641643 12.39490587 -3.40234375 12.703125 C-5.40603759 13.78262665 -5.40603759 13.78262665 -7.3515625 15.34375 C-8.48670288 16.19851929 -8.48670288 16.19851929 -9.64477539 17.07055664 C-10.85508423 18.00242798 -10.85508423 18.00242798 -12.08984375 18.953125 C-13.81008999 20.25016865 -15.53146578 21.54571541 -17.25390625 22.83984375 C-18.55183105 23.81896729 -18.55183105 23.81896729 -19.87597656 24.81787109 C-23.52258065 27.53908067 -27.23593669 30.15891205 -30.96484375 32.765625 C-36.12517825 36.38658289 -41.27132898 40.025245 -46.38500977 43.71191406 C-47.92649226 44.82259557 -49.47121493 45.92879523 -51.01928711 47.03027344 C-54.34672116 49.41235186 -57.5851288 51.79818669 -60.640625 54.5234375 C-67.88261932 60.77565993 -73.07474618 61.68472531 -82.32421875 61.01953125 C-83.34 60.91511719 -84.35578125 60.81070313 -85.40234375 60.703125 C-81.22922664 56.2378897 -76.59097755 52.72375083 -71.65234375 49.140625 C-70.81396973 48.52783691 -69.9755957 47.91504883 -69.11181641 47.28369141 C-61.62853913 41.83015971 -54.07423892 36.4794001 -46.49072266 31.16650391 C-35.40728724 23.40006576 -24.38514402 15.55388233 -13.42578125 7.61328125 C-12.41016113 6.88842529 -12.41016113 6.88842529 -11.37402344 6.14892578 C-10.05632083 5.1826758 -8.76451435 4.180118 -7.50097656 3.14404297 C-3.0856414 -0.38131503 -3.0856414 -0.38131503 0 0 Z " fill="#85542D" transform="translate(181.40234375,57.296875)"/>
<path d="M0 0 C3.08798261 6.17596522 2.0533299 15.20279361 2.02734375 21.92578125 C2.02536987 22.61047485 2.023396 23.29516846 2.0213623 24.00061035 C2.01627051 25.667081 2.00842658 27.33354288 2 29 C1.10506836 29.29656494 0.21013672 29.59312988 -0.71191406 29.89868164 C-4.12994281 31.03190097 -7.54736455 32.16694018 -10.96450806 33.30282593 C-12.48426223 33.80797662 -14.00409827 34.31288107 -15.52401733 34.8175354 C-25.46114736 38.11871756 -35.38046232 41.45611263 -45.20996094 45.06860352 C-48.71493644 46.33106843 -51.22503909 47 -55 47 C-55.25940557 35.48527482 -54.59882726 24.40591948 -53 13 C-40.81210607 9.63182492 -28.6052898 6.33593614 -16.375 3.125 C-15.20799561 2.8148999 -14.04099121 2.5047998 -12.83862305 2.18530273 C-11.74461182 1.89985596 -10.65060059 1.61440918 -9.5234375 1.3203125 C-8.55325684 1.06523926 -7.58307617 0.81016602 -6.58349609 0.54736328 C-4 0 -4 0 0 0 Z " fill="#85522B" transform="translate(209,178)"/>
<path d="M0 0 C3.20895166 0.66975826 5.82632247 1.84612136 8.75 3.3125 C20.35018339 8.64147905 32.32645702 10.60395178 45 11 C45.24699141 17.70063785 44.31478751 23.86407385 43.0625 30.4375 C42.88009766 31.44232422 42.69769531 32.44714844 42.50976562 33.48242188 C41.13754931 40.86245069 41.13754931 40.86245069 40 42 C23.63484286 43.62064457 4.71492419 41.92037916 -9 32 C-10.45387755 28.4939593 -9.67125209 26.23764567 -8.41796875 22.75390625 C-8.06283203 21.75166016 -7.70769531 20.74941406 -7.34179688 19.71679688 C-6.96087891 18.67587891 -6.57996094 17.63496094 -6.1875 16.5625 C-5.81818359 15.52544922 -5.44886719 14.48839844 -5.06835938 13.41992188 C-3.45599633 8.91283164 -1.79678582 4.43714482 0 0 Z " fill="#85522A" transform="translate(85,151)"/>
<path d="M0 0 C16.91076697 -0.46781835 39.65034452 -0.87099509 53.71875 10.125 C56.59492716 13.74977121 57.90093753 17.25995723 59.3125 21.625 C59.57611328 22.388125 59.83972656 23.15125 60.11132812 23.9375 C61.1929906 27.14034474 62 29.58920679 62 33 C58.30990657 32.35980835 54.80129351 31.35379091 51.22973633 30.23510742 C35.43360162 25.332736 20.43955528 24.7097063 4 25 C2.70640334 20.65721121 1.61830638 16.41503606 0.875 11.9375 C0.70742187 10.95652344 0.53984375 9.97554687 0.3671875 8.96484375 C-0.00682551 5.94488765 -0.0632338 3.03973914 0 0 Z " fill="#693B1B" transform="translate(238,174)"/>
<path d="M0 0 C1.5402775 4.97677898 2.50636739 9.77039648 3.125 14.9375 C3.21136719 15.62134766 3.29773438 16.30519531 3.38671875 17.00976562 C3.59602285 18.67257046 3.79871722 20.33620513 4 22 C2.3603125 22.23783203 2.3603125 22.23783203 0.6875 22.48046875 C-9.86809356 24.05772804 -20.29526483 26.01641635 -30.72460938 28.28588867 C-32.16610352 28.59683472 -32.16610352 28.59683472 -33.63671875 28.9140625 C-34.90068481 29.1917749 -34.90068481 29.1917749 -36.19018555 29.47509766 C-39.76725138 30.14333048 -43.38915342 30.54864418 -47 31 C-47 22.75 -47 14.5 -47 6 C-37.12260945 3.17788842 -27.38810032 1.86586491 -17.1875 0.875 C-15.84437744 0.74351562 -15.84437744 0.74351562 -14.47412109 0.609375 C-9.62521691 0.16092143 -4.8692023 -0.09299977 0 0 Z " fill="#A16D49" transform="translate(231,150)"/>
<path d="M0 0 C2.3825855 0.92229116 4.7367244 1.87787215 7.0546875 2.953125 C11.99569875 5.24411292 16.67667089 6.83854638 22 8 C21.38117946 15.23718163 19.92315178 22.03216511 18.125 29.0625 C17.86847656 30.09955078 17.61195312 31.13660156 17.34765625 32.20507812 C15.89254932 37.97066515 14.21321579 43.4802133 12 49 C6.23077875 48.48019252 1.50728357 47.31463172 -3.8125 45.0625 C-4.46669922 44.79759766 -5.12089844 44.53269531 -5.79492188 44.25976562 C-8.75571861 43.04096983 -11.32662532 41.78224978 -14 40 C-12.67197954 33.4716618 -10.8759166 27.32809316 -8.625 21.0625 C-8.31481934 20.18875732 -8.00463867 19.31501465 -7.68505859 18.41479492 C-1.72322918 1.72322918 -1.72322918 1.72322918 0 0 Z " fill="#85522B" transform="translate(74,185)"/>
<path d="M0 0 C12.87 0.495 12.87 0.495 26 1 C26 9.99895942 26 9.99895942 25.1953125 13.8046875 C25.02386719 14.63613281 24.85242188 15.46757812 24.67578125 16.32421875 C24.49402344 17.16597656 24.31226563 18.00773437 24.125 18.875 C23.95097656 19.70902344 23.77695313 20.54304688 23.59765625 21.40234375 C23.24762498 23.07990103 22.89381544 24.75667463 22.53613281 26.43261719 C21.79749848 29.96972039 21.12689171 33.51944592 20.46044922 37.07080078 C20 39 20 39 19 40 C16.92737924 40.08767112 14.85179706 40.10695873 12.77734375 40.09765625 C11.51728516 40.09443359 10.25722656 40.09121094 8.95898438 40.08789062 C7.61848891 40.07953403 6.27799412 40.07106907 4.9375 40.0625 C3.59310058 40.0574866 2.2486994 40.05292342 0.90429688 40.04882812 C-2.39717941 40.03699488 -5.69856803 40.02050971 -9 40 C-8.54300848 32.81276978 -7.16862119 26.3114351 -5.0625 19.4375 C-4.52992911 17.66615109 -3.99995443 15.8940194 -3.47265625 14.12109375 C-3.12086304 12.96758423 -3.12086304 12.96758423 -2.76196289 11.79077148 C-1.69875527 7.89665859 -0.87567186 3.94052338 0 0 Z " fill="#A16D49" transform="translate(98,195)"/>
<path d="M0 0 C3.73210035 -0.34717213 5.54070458 -0.2922789 8.75 1.75 C12.09482119 5.09482119 13.11685497 7.36916523 13.16015625 12.07421875 C13.1376756 13.61215937 13.10481714 15.14997732 13.0625 16.6875 C13.00093151 19.46264267 12.97934396 22.22323867 13 25 C13.33 25.33 13.66 25.66 14 26 C14.04063832 27.66617115 14.042721 29.33388095 14 31 C10.98675805 32.50662097 8.31713623 32.17770373 5 32 C4.01 31.01 4.01 31.01 3 30 C3.375 26.375 3.375 26.375 4 23 C-8.58042372 15.67358155 -32.11063991 24.18402295 -45.3762207 27.015625 C-58.1842295 29.72078661 -71.07484728 31.93437281 -84 34 C-84.84143555 34.13567383 -85.68287109 34.27134766 -86.54980469 34.41113281 C-104.50706221 37.21079308 -133.09035212 40.60643192 -149 30 C-148.31421875 30.0721875 -147.6284375 30.144375 -146.921875 30.21875 C-138.45435938 30.96956419 -129.9972667 31.1710852 -121.5 31.25 C-119.85789551 31.2819043 -119.85789551 31.2819043 -118.18261719 31.31445312 C-95.58641861 31.40527907 -73.08704008 25.91169546 -51.01049805 21.68579102 C-23.77351696 16.4879977 -23.77351696 16.4879977 -10.55760193 15.69761658 C-5.41535987 15.3486428 -1.63461367 14.28625511 3 12 C3.2954439 6.97745369 2.98514628 4.10457614 0 0 Z " fill="#44312C" transform="translate(249,122)"/>
<path d="M0 0 C0.50831867 2.83206118 1.00681505 5.66529734 1.5 8.5 C1.64308594 9.29148438 1.78617188 10.08296875 1.93359375 10.8984375 C2.81386457 16.0123918 3.1428131 20.81112402 3 26 C-5.65305272 27.75163011 -14.30737393 29.45462174 -23 31 C-23.3389231 27.64637391 -23.67011964 24.29202668 -24 20.9375 C-24.09539062 19.99455078 -24.19078125 19.05160156 -24.2890625 18.08007812 C-24.78225278 13.02487778 -25.11270932 8.07896392 -25 3 C-16.58281855 0.70440506 -8.70219136 -0.05484574 0 0 Z " fill="#A16E4A" transform="translate(236,174)"/>
<path d="M0 0 C0 8.25 0 16.5 0 25 C-5.36349214 27.01130955 -9.82706972 28.55444391 -15.3125 29.6875 C-16.50488281 29.93886719 -17.69726562 30.19023437 -18.92578125 30.44921875 C-22 31 -22 31 -25 31 C-25.18451025 12.17995444 -25.18451025 12.17995444 -24 3 C-20.93852743 2.49357075 -17.87567701 1.99600678 -14.8125 1.5 C-13.94818359 1.35691406 -13.08386719 1.21382812 -12.19335938 1.06640625 C-11.35224609 0.93105469 -10.51113281 0.79570312 -9.64453125 0.65625 C-8.87471924 0.53056641 -8.10490723 0.40488281 -7.31176758 0.27539062 C-5 0 -5 0 0 0 Z " fill="#A16E4A" transform="translate(182,157)"/>
<path d="M0 0 C2.8154004 1.33636734 5.32579731 2.83791349 7.86328125 4.64453125 C8.58580078 5.15693359 9.30832031 5.66933594 10.05273438 6.19726562 C10.79845703 6.73029297 11.54417969 7.26332031 12.3125 7.8125 C13.04662109 8.33392578 13.78074219 8.85535156 14.53710938 9.39257812 C15.9919072 10.42655599 17.44395317 11.46441783 18.89306641 12.50634766 C20.28162352 13.49072685 21.68493563 14.4546624 23.10302734 15.39599609 C24.78539502 16.5261847 26.40041349 17.75540759 28 19 C28 19.99 28 20.98 28 22 C28.66 22 29.32 22 30 22 C29.67 23.32 29.34 24.64 29 26 C25.49990277 25.37300524 23.27451212 23.98442607 20.41015625 21.91015625 C19.10981445 20.98106445 19.10981445 20.98106445 17.78320312 20.03320312 C16.88537109 19.38287109 15.98753906 18.73253906 15.0625 18.0625 C13.28596924 16.77781337 11.50612325 15.49769613 9.72265625 14.22265625 C8.93640869 13.65297119 8.15016113 13.08328613 7.34008789 12.49633789 C4.89356661 10.93194259 2.80864934 9.76099177 0 9 C-2.0238057 9.69164574 -2.0238057 9.69164574 -3.79296875 11.19140625 C-4.49736084 11.71822998 -5.20175293 12.24505371 -5.92749023 12.7878418 C-7.04619507 13.66629761 -7.04619507 13.66629761 -8.1875 14.5625 C-9.78606886 15.76874549 -11.38503957 16.97445857 -12.984375 18.1796875 C-13.80615234 18.80842773 -14.62792969 19.43716797 -15.47460938 20.08496094 C-19.57478056 23.19417815 -23.75788714 26.18645689 -27.9375 29.1875 C-30.05600877 30.72015729 -32.17437771 32.25300766 -34.29272461 33.78588867 C-35.84109387 34.88699554 -37.41912991 35.94608661 -39 37 C-41.1875 36.625 -41.1875 36.625 -43 36 C-43.33 34.68 -43.66 33.36 -44 32 C-41.29215265 30.04099402 -38.58370247 28.08282343 -35.875 26.125 C-34.64789307 25.23796387 -34.64789307 25.23796387 -33.39599609 24.33300781 C-28.48562282 20.78636128 -23.56235801 17.25893997 -18.625 13.75 C-12.33381712 9.27505426 -6.1518113 4.66456022 0 0 Z " fill="#F6F4F1" transform="translate(179,68)"/>
<path d="M0 0 C3.8117164 2.14441111 4.95954685 3.9856885 6.26953125 8.07421875 C6.47835938 8.91855469 6.6871875 9.76289063 6.90234375 10.6328125 C7.19367188 11.63183594 7.485 12.63085938 7.78515625 13.66015625 C8.5416398 16.30784867 9.24278874 18.95961604 9.90234375 21.6328125 C9.3606958 21.50874023 8.81904785 21.38466797 8.26098633 21.25683594 C4.25964127 20.35229595 0.27233424 19.5166465 -3.7734375 18.8359375 C-13.19442461 17.02168708 -13.19442461 17.02168708 -17.09765625 14.6328125 C-20.39332589 9.27185656 -21.09765625 3.84649125 -21.09765625 -2.3671875 C-14.80133456 -6.64868625 -6.3396607 -2.54167382 0 0 Z " fill="#85522A" transform="translate(281.09765625,159.3671875)"/>
<path d="M0 0 C11 0 11 0 16 2 C17.00642948 3.32848691 18.00692179 4.66150329 19 6 C22.10197397 6.80946422 22.10197397 6.80946422 25 7 C25.50806447 8.72681437 26.00610467 10.45657979 26.5 12.1875 C26.7784375 13.15042969 27.056875 14.11335937 27.34375 15.10546875 C28 18 28 18 28 23 C19.75 22.67 11.5 22.34 3 22 C2.01 14.74 1.02 7.48 0 0 Z " fill="#87552D" transform="translate(233,150)"/>
<path d="M0 0 C-0.99 0.33 -1.98 0.66 -3 1 C-2.34 1.66 -1.68 2.32 -1 3 C-2.98 3.33 -4.96 3.66 -7 4 C-7.33 12.25 -7.66 20.5 -8 29 C-4.04 28.071875 -0.08 27.14375 4 26.1875 C19.47455734 22.60508688 19.47455734 22.60508688 27.125 21.125 C28.28257812 20.90070313 29.44015625 20.67640625 30.6328125 20.4453125 C34.48465987 19.93590345 38.11775501 19.92354441 42 20 C42.495 20.99 42.495 20.99 43 22 C35.08 22.99 27.16 23.98 19 25 C19.350625 27.5575 19.70125 30.115 20.0625 32.75 C20.98213311 39.98086803 21.03313062 46.7541244 20 54 C19.67 54 19.34 54 19 54 C18.34 44.76 17.68 35.52 17 26 C-4.17765358 31.24593945 -4.17765358 31.24593945 -25.24609375 36.91015625 C-26.23738281 37.18730469 -27.22867188 37.46445313 -28.25 37.75 C-29.10078125 37.99234375 -29.9515625 38.2346875 -30.828125 38.484375 C-33 39 -33 39 -36 39 C-36.66 50.22 -37.32 61.44 -38 73 C-37.34 73.33 -36.68 73.66 -36 74 C-36.99 74 -37.98 74 -39 74 C-40.89188337 56.51717414 -38.85756154 39.39692801 -37 22 C-36.67 22 -36.34 22 -36 22 C-35.15270857 25.28325429 -34.94430415 28.32093468 -34.96875 31.69140625 C-34.97326172 32.49908447 -34.97777344 33.3067627 -34.98242188 34.13891602 C-34.98822266 34.75307373 -34.99402344 35.36723145 -35 36 C-31.58324484 35.18787184 -28.16661143 34.3752326 -24.75 33.5625 C-23.78191406 33.33240234 -22.81382812 33.10230469 -21.81640625 32.86523438 C-20.88183594 32.64287109 -19.94726562 32.42050781 -18.984375 32.19140625 C-18.12553711 31.98717041 -17.26669922 31.78293457 -16.38183594 31.57250977 C-14.25160341 31.06047663 -12.1254909 30.53137273 -10 30 C-10 21.75 -10 13.5 -10 5 C-13.3 5.66 -16.6 6.32 -20 7 C-21.32 7 -22.64 7 -24 7 C-24 6.34 -24 5.68 -24 5 C-24.99 4.34 -25.98 3.68 -27 3 C-23.25239331 2.29899918 -19.50163915 1.61656013 -15.75 0.9375 C-14.68652344 0.73833984 -13.62304688 0.53917969 -12.52734375 0.33398438 C-11.50253906 0.15029297 -10.47773438 -0.03339844 -9.421875 -0.22265625 C-8.47924805 -0.39547119 -7.53662109 -0.56828613 -6.56542969 -0.74633789 C-4.04822766 -0.99523139 -2.38219113 -0.78671127 0 0 Z " fill="#F4EDE6" transform="translate(192,152)"/>
<path d="M0 0 C0.33 0 0.66 0 1 0 C2.13679612 6.41249408 1.67374723 11.59097422 0.41796875 17.94921875 C0.24372879 18.88369339 0.06948883 19.81816803 -0.11003113 20.78096008 C-0.66626776 23.75206109 -1.23875628 26.71973513 -1.8125 29.6875 C-2.37071757 32.63089494 -2.92552212 35.57491667 -3.47970581 38.51907349 C-3.83726004 40.41846285 -4.19606922 42.31761644 -4.55618286 44.21652222 C-5.69420918 50.24859286 -6.72746988 56.27977982 -7.61206055 62.35473633 C-8.03572068 65.24357054 -8.51259159 68.1213019 -9 71 C-4.545 70.505 -4.545 70.505 0 70 C-0.33 70.66 -0.66 71.32 -1 72 C-1.99 72 -2.98 72 -4 72 C-4.33 72.66 -4.66 73.32 -5 74 C-5.33 73.67 -5.66 73.34 -6 73 C-7.66608987 72.95615553 -9.33380554 72.9603287 -11 73 C-11.99 73 -12.98 73 -14 73 C-13.01 71.515 -13.01 71.515 -12 70 C-11.39188505 67.59080911 -11.39188505 67.59080911 -11 64.87890625 C-10.835 63.85990234 -10.67 62.84089844 -10.5 61.79101562 C-10.335 60.72560547 -10.17 59.66019531 -10 58.5625 C-9.66666667 56.48046875 -9.33333333 54.3984375 -9 52.31640625 C-8.83757812 51.28531738 -8.67515625 50.25422852 -8.5078125 49.19189453 C-7.70138265 44.12301767 -6.85122694 39.06151763 -6 34 C-7.03898437 34.01160156 -8.07796875 34.02320313 -9.1484375 34.03515625 C-16.83889618 34.09420008 -24.35737998 33.97138129 -32 33 C-32.10441406 34.26972656 -32.20882812 35.53945312 -32.31640625 36.84765625 C-32.91719221 42.24628297 -34.35650901 47.25473098 -35.9375 52.4375 C-37.99393102 59.24723875 -39.728275 65.99751128 -41 73 C-41.99 72.67 -42.98 72.34 -44 72 C-43.78085938 71.13503906 -43.56171875 70.27007812 -43.3359375 69.37890625 C-40.12100196 56.610646 -37.05767682 43.80670252 -34 31 C-34.65661621 30.8860791 -35.31323242 30.7721582 -35.98974609 30.65478516 C-40.90343005 29.74785175 -45.19271227 28.78109905 -49.625 26.375 C-50.46289062 25.92898437 -51.30078125 25.48296875 -52.1640625 25.0234375 C-52.76992187 24.68570313 -53.37578125 24.34796875 -54 24 C-53.01 23.34 -52.02 22.68 -51 22 C-48.5390625 22.79296875 -48.5390625 22.79296875 -45.625 24.1875 C-31.90135593 30.17421481 -19.7909934 30.28627729 -5 30 C-3.35 20.1 -1.7 10.2 0 0 Z " fill="#EFE6DE" transform="translate(130,162)"/>
<path d="M0 0 C2.70567626 1.82339052 4.53728718 3.07457436 6 6 C6.53118173 9.79415519 6.85089348 13.46331178 4.953125 16.890625 C2.0632428 20.39248226 0.23797875 21.8571563 -4.25 22.375 C-8.02099067 21.99790093 -10.05409102 21.30904145 -12.83203125 18.6875 C-15.11072089 15.39521262 -15.29649164 11.90955255 -15 8 C-13.78047108 4.34141324 -12.6576088 2.56627424 -9.75 0.0625 C-6.02880638 -1.3752339 -3.8329762 -1.02669005 0 0 Z " fill="#F8F7F6" transform="translate(119,258)"/>
<path d="M0 0 C1.79244141 0.01740234 1.79244141 0.01740234 3.62109375 0.03515625 C5.41740234 0.04869141 5.41740234 0.04869141 7.25 0.0625 C8.17683594 0.07410156 9.10367188 0.08570313 10.05859375 0.09765625 C10.18234375 1.17015625 10.30609375 2.24265625 10.43359375 3.34765625 C10.95503311 6.4762924 11.45947629 8.43246049 13.05859375 11.09765625 C12.06859375 11.09765625 11.07859375 11.09765625 10.05859375 11.09765625 C10.05859375 14.39765625 10.05859375 17.69765625 10.05859375 21.09765625 C7.28807194 22.02116352 5.49170617 22.2609521 2.62109375 22.28515625 C1.85925781 22.29933594 1.09742187 22.31351562 0.3125 22.328125 C-3.31007992 21.95770522 -5.34988235 20.79480942 -7.69140625 18.03515625 C-9.41048344 13.99532484 -9.81072483 10.42075406 -8.94140625 6.09765625 C-6.50390625 3.09765625 -6.50390625 3.09765625 -3.94140625 1.09765625 C-2.94140625 0.09765625 -2.94140625 0.09765625 0 0 Z " fill="#F4F3F2" transform="translate(87.94140625,257.90234375)"/>
<path d="M0 0 C3 2.4375 3 2.4375 5 5 C5.33 5.33 5.66 5.66 6 6 C6.55720584 9.78103961 6.84003776 13.47978241 4.953125 16.89453125 C2.05962574 20.39226124 0.23780017 21.8571769 -4.25 22.375 C-9.19272958 21.88072704 -10.53828301 20.46171699 -14 17 C-15.87284445 13.25431111 -15.32627263 9.19633296 -14.25 5.25 C-11.0545855 -0.5017461 -6.16700576 -1.2202097 0 0 Z " fill="#F8F7F6" transform="translate(68,258)"/>
<path d="M0 0 C3.73210035 -0.34717213 5.54070458 -0.2922789 8.75 1.75 C12.09482119 5.09482119 13.11685497 7.36916523 13.16015625 12.07421875 C13.1376756 13.61215937 13.10481714 15.14997732 13.0625 16.6875 C13.00093151 19.46264267 12.97934396 22.22323867 13 25 C13.33 25.33 13.66 25.66 14 26 C14.04063832 27.66617115 14.042721 29.33388095 14 31 C10.98675805 32.50662097 8.31713623 32.17770373 5 32 C4.34 31.34 3.68 30.68 3 30 C3.375 26.375 3.375 26.375 4 23 C0.34827367 20.73150334 -3.0127118 20.6104049 -7.25 20.375 C-8.51328125 20.30023438 -9.7765625 20.22546875 -11.078125 20.1484375 C-12.04234375 20.09945312 -13.0065625 20.05046875 -14 20 C-14.33 19.01 -14.66 18.02 -15 17 C-13.95199219 16.80664062 -12.90398437 16.61328125 -11.82421875 16.4140625 C-10.44524407 16.15140066 -9.06634151 15.88836 -7.6875 15.625 C-6.99720703 15.49867188 -6.30691406 15.37234375 -5.59570312 15.2421875 C-2.16296686 14.57885682 0.05246458 13.96502361 3 12 C3.56672947 6.99388969 2.95975249 4.06965968 0 0 Z " fill="#3C2824" transform="translate(249,122)"/>
<path d="M0 0 C0.99 0.33 1.98 0.66 3 1 C6.6444989 2.0939748 10.30966103 3.07268405 14 4 C14.84046875 4.21140625 15.6809375 4.4228125 16.546875 4.640625 C29.49462404 7.32211149 43.9144571 6.85962107 56.99682617 5.22045898 C59.85739585 4.90563943 62.68724075 4.90445104 65.5625 4.9375 C66.59503906 4.94652344 67.62757813 4.95554688 68.69140625 4.96484375 C69.83416016 4.98224609 69.83416016 4.98224609 71 5 C70.67 5.99 70.34 6.98 70 8 C66.7 8.33 63.4 8.66 60 9 C60.020625 10.464375 60.04125 11.92875 60.0625 13.4375 C60.06953385 18.36823058 59.63066267 23.11236433 59 28 C58.67 28 58.34 28 58 28 C58 22.06 58 16.12 58 10 C54.2056569 10.22706305 50.41635527 10.48047237 46.625 10.75 C45.54476562 10.811875 44.46453125 10.87375 43.3515625 10.9375 C42.3203125 11.01484375 41.2890625 11.0921875 40.2265625 11.171875 C39.27346191 11.2347168 38.32036133 11.29755859 37.33837891 11.36230469 C34.82647187 11.76791314 34.82647187 11.76791314 33.67333984 14.05175781 C33.4511377 14.69467773 33.22893555 15.33759766 33 16 C33 14.35 33 12.7 33 11 C31.65421875 11.06960937 31.65421875 11.06960937 30.28125 11.140625 C17.68022562 11.50511744 6.56111047 9.19952004 -5 4 C-4.34 3.34 -3.68 2.68 -3 2 C-2.01 2.33 -1.02 2.66 0 3 C0 2.01 0 1.02 0 0 Z " fill="#F3F0ED" transform="translate(98,151)"/>
<path d="M0 0 C0 11.22 0 22.44 0 34 C-2.97 34 -5.94 34 -9 34 C-9.17367408 29.96198226 -9.30034608 25.92542209 -9.38452148 21.88452148 C-9.41962146 20.51174033 -9.46731822 19.13921903 -9.52807617 17.76733398 C-10.01998327 6.37079719 -10.01998327 6.37079719 -7.48095703 2.95849609 C-5.109064 1.21509014 -3.00036457 0 0 0 Z " fill="#A77654" transform="translate(125,116)"/>
<path d="M0 0 C5.28 0 10.56 0 16 0 C15 3 15 3 14 4 C14.33 4.66 14.66 5.32 15 6 C15.13415472 8.6723621 15.04318541 11.32250488 15 14 C15.66 14.33 16.32 14.66 17 15 C17.33 15.33 17.66 15.66 18 16 C17.29411765 20.70588235 17.29411765 20.70588235 16 22 C13.30345146 22.07319621 10.63308542 22.09242537 7.9375 22.0625 C7.17888672 22.05798828 6.42027344 22.05347656 5.63867188 22.04882812 C3.75908129 22.0370068 1.87953101 22.01907078 0 22 C0.66 21.34 1.32 20.68 2 20 C2.36894582 17.96939341 2.36894582 17.96939341 2.4140625 15.6484375 C2.45273438 14.79765625 2.49140625 13.946875 2.53125 13.0703125 C2.5621875 12.18085938 2.593125 11.29140625 2.625 10.375 C2.66367188 9.4778125 2.70234375 8.580625 2.7421875 7.65625 C2.83659357 5.4377073 2.92216748 3.21917597 3 1 C2.01 0.67 1.02 0.34 0 0 Z " fill="#FBF9F8" transform="translate(161,258)"/>
<path d="M0 0 C3.6032482 2.20408585 7.05580543 4.55967511 10.48046875 7.03125 C11.21773193 7.55750977 11.95499512 8.08376953 12.71459961 8.62597656 C20.05932481 13.88285711 27.34321964 19.22370262 34.60546875 24.59375 C31.0714237 24.59375 29.82283733 23.7549783 26.81640625 21.9609375 C25.87410156 21.40148437 24.93179688 20.84203125 23.9609375 20.265625 C22.97738281 19.67265625 21.99382812 19.0796875 20.98046875 18.46875 C20.02011719 17.89898437 19.05976563 17.32921875 18.0703125 16.7421875 C12.74998369 13.56587179 7.62048733 10.2885681 2.66259766 6.56689453 C-0.15899298 5.23211406 -1.45262391 5.61900503 -4.39453125 6.59375 C-7.21918904 8.03106908 -7.21918904 8.03106908 -10.11328125 9.875 C-11.75127686 10.88530273 -11.75127686 10.88530273 -13.42236328 11.91601562 C-14.58000417 12.64152583 -15.73738954 13.3674439 -16.89453125 14.09375 C-18.07128672 14.8251355 -19.24820754 15.55625502 -20.42529297 16.28710938 C-28.24364613 21.15976513 -35.94712657 26.16649153 -43.39453125 31.59375 C-44.05453125 31.26375 -44.71453125 30.93375 -45.39453125 30.59375 C-40.31902688 26.89332721 -35.23698715 23.20198938 -30.1484375 19.51953125 C-29.40343994 18.98038086 -28.65844238 18.44123047 -27.89086914 17.88574219 C-26.34631633 16.77056755 -24.79991285 15.65795185 -23.25170898 14.54785156 C-19.56259761 11.90076797 -15.90057681 9.23249479 -12.30078125 6.46484375 C-11.35489136 5.75110596 -11.35489136 5.75110596 -10.38989258 5.02294922 C-9.21441694 4.13431821 -8.04941107 3.23160485 -6.8972168 2.31298828 C-4.44847817 0.48331915 -3.08996854 -0.5242361 0 0 Z " fill="#46322F" transform="translate(181.39453125,76.40625)"/>
<path d="M0 0 C1 4 1 4 1 4 Z M-13 3 C-11.66528865 3.32777203 -10.33223009 3.66228433 -9 4 C-7.41788427 4.06548492 -5.83329919 4.08578381 -4.25 4.0625 C-3.05117188 4.04896484 -3.05117188 4.04896484 -1.828125 4.03515625 C-0.92320312 4.01775391 -0.92320312 4.01775391 0 4 C0 5.32 0 6.64 0 8 C-0.99 8 -1.98 8 -3 8 C-1.68 13.61 -0.36 19.22 1 25 C3.64 25.33 6.28 25.66 9 26 C11.34521484 26.57250977 11.34521484 26.57250977 13.2109375 27.19140625 C13.89800781 27.41376953 14.58507812 27.63613281 15.29296875 27.86523438 C15.98003906 28.09533203 16.66710937 28.32542969 17.375 28.5625 C22.09169284 30.3023356 22.09169284 30.3023356 27 31 C27 30.01 27 29.02 27 28 C27.99 28.33 28.98 28.66 30 29 C30 29.66 30 30.32 30 31 C30.66 31 31.32 31 32 31 C31.67 33.31 31.34 35.62 31 38 C30.3503125 37.40445313 29.700625 36.80890625 29.03125 36.1953125 C25.34514285 33.5257349 21.80449578 32.24814954 17.5 30.875 C16.6961084 30.61565674 15.8922168 30.35631348 15.06396484 30.08911133 C1.90988184 25.9769838 -11.32329808 25.51816019 -25 25 C-24.90388428 25.60996826 -24.80776855 26.21993652 -24.70874023 26.84838867 C-24.27607548 29.62678804 -23.8566748 32.40703481 -23.4375 35.1875 C-23.28603516 36.14720703 -23.13457031 37.10691406 -22.97851562 38.09570312 C-22.83994141 39.02705078 -22.70136719 39.95839844 -22.55859375 40.91796875 C-22.36221313 42.19837036 -22.36221313 42.19837036 -22.16186523 43.50463867 C-21.98754875 46.19195204 -22.36123018 48.39390077 -23 51 C-23.33 51 -23.66 51 -24 51 C-24.53451363 47.43941339 -25.05018364 43.87634262 -25.5625 40.3125 C-25.71396484 39.30509766 -25.86542969 38.29769531 -26.02148438 37.25976562 C-26.16005859 36.28330078 -26.29863281 35.30683594 -26.44140625 34.30078125 C-26.57232666 33.40528564 -26.70324707 32.50979004 -26.83813477 31.5871582 C-27.00865085 28.86172995 -26.65156661 26.64165504 -26 24 C-22.56296699 23.80317731 -19.12536573 23.61914848 -15.6875 23.4375 C-14.22280273 23.35338867 -14.22280273 23.35338867 -12.72851562 23.26757812 C-11.32182617 23.19506836 -11.32182617 23.19506836 -9.88671875 23.12109375 C-9.02264404 23.0739624 -8.15856934 23.02683105 -7.26831055 22.97827148 C-5 23 -5 23 -2 24 C-2.2165625 23.18015625 -2.433125 22.3603125 -2.65625 21.515625 C-2.9346875 20.43796875 -3.213125 19.3603125 -3.5 18.25 C-3.7784375 17.18265625 -4.056875 16.1153125 -4.34375 15.015625 C-5 12 -5 12 -5 8 C-5.928125 8.0825 -6.85625 8.165 -7.8125 8.25 C-11 8 -11 8 -12.875 6 C-13.24625 5.34 -13.6175 4.68 -14 4 C-13.67 3.67 -13.34 3.34 -13 3 Z " fill="#E3D8CF" transform="translate(263,149)"/>
<path d="M0 0 C0.68578125 0.0721875 1.3715625 0.144375 2.078125 0.21875 C10.80587683 0.99263932 19.49164299 1.11127575 28.25 1.125 C29.4452832 1.12951172 30.64056641 1.13402344 31.87207031 1.13867188 C37.93799342 1.12857042 43.87350605 0.91144306 49.90039062 0.22265625 C52.48337192 -0.05125991 55.02897326 -0.0995861 57.625 -0.0625 C58.88183594 -0.04896484 58.88183594 -0.04896484 60.1640625 -0.03515625 C60.76992187 -0.02355469 61.37578125 -0.01195312 62 0 C62 0.66 62 1.32 62 2 C60.35 2 58.7 2 57 2 C58.32 2.66 59.64 3.32 61 4 C42.45548181 8.05661335 21.17392121 7.72181144 3 2 C2.01 1.34 1.02 0.68 0 0 Z " fill="#35201B" transform="translate(100,152)"/>
<path d="M0 0 C2.97 0 5.94 0 9 0 C8.01 0.33 7.02 0.66 6 1 C6 3.97 6 6.94 6 10 C9.3 10 12.6 10 16 10 C15.87625 8.72125 15.7525 7.4425 15.625 6.125 C15.55539063 5.40570313 15.48578125 4.68640625 15.4140625 3.9453125 C15.13625251 1.77331755 15.13625251 1.77331755 13 0 C15.31 0 17.62 0 20 0 C19.98952637 0.59538574 19.97905273 1.19077148 19.96826172 1.80419922 C19.92676051 4.49442343 19.90069296 7.18458037 19.875 9.875 C19.85824219 10.81214844 19.84148437 11.74929688 19.82421875 12.71484375 C19.81777344 13.61074219 19.81132812 14.50664062 19.8046875 15.4296875 C19.79421387 16.25710449 19.78374023 17.08452148 19.77294922 17.93701172 C19.80697743 20.22398157 19.80697743 20.22398157 22 22 C19.03 22 16.06 22 13 22 C13.33 21.34 13.66 20.68 14 20 C14.66 20 15.32 20 16 20 C16 17.03 16 14.06 16 11 C12.7 11 9.4 11 6 11 C6.12375 12.44375 6.2475 13.8875 6.375 15.375 C6.47941406 16.59316406 6.47941406 16.59316406 6.5859375 17.8359375 C6.82892588 20.20334191 6.82892588 20.20334191 9 22 C6.03 22 3.06 22 0 22 C0.33 21.34 0.66 20.68 1 20 C1.66 20 2.32 20 3 20 C2.88641524 17.04081802 2.75966914 14.08323217 2.625 11.125 C2.57859375 9.86236328 2.57859375 9.86236328 2.53125 8.57421875 C2.49257812 7.76855469 2.45390625 6.96289062 2.4140625 6.1328125 C2.3826416 5.38918457 2.3512207 4.64555664 2.31884766 3.87939453 C2.14580449 1.75989026 2.14580449 1.75989026 0 0 Z " fill="#50413E" transform="translate(240,258)"/>
<path d="M0 0 C1.89510699 -0.08160748 3.79124504 -0.13946459 5.6875 -0.1875 C6.74324219 -0.22230469 7.79898437 -0.25710938 8.88671875 -0.29296875 C12.39465334 0.03713802 14.21937295 0.86886248 17 3 C17.5625 5.4375 17.5625 5.4375 17 8 C15 10.3125 15 10.3125 13 12 C13.76713644 13.10673834 14.53889003 14.21027694 15.3125 15.3125 C15.95638672 16.23482422 15.95638672 16.23482422 16.61328125 17.17578125 C17.95929534 18.94645331 19.39192803 20.46738009 21 22 C18.73828125 22.28125 18.73828125 22.28125 16 22 C13.98046875 20.03125 13.98046875 20.03125 12.1875 17.5 C11.28064453 16.24703125 11.28064453 16.24703125 10.35546875 14.96875 C9.90816406 14.3190625 9.46085937 13.669375 9 13 C10.875 9.125 10.875 9.125 12 8 C12.04063832 6.33382885 12.042721 4.66611905 12 3 C10.02 2.34 8.04 1.68 6 1 C6.10962816 4.1257396 6.24031241 7.25024781 6.375 10.375 C6.4059375 11.26445312 6.436875 12.15390625 6.46875 13.0703125 C6.50742187 13.92109375 6.54609375 14.771875 6.5859375 15.6484375 C6.6173584 16.43395996 6.6487793 17.21948242 6.68115234 18.02880859 C6.8399465 20.23002939 6.8399465 20.23002939 9 22 C6.03 22 3.06 22 0 22 C0.66 21.34 1.32 20.68 2 20 C2.36894582 17.96939341 2.36894582 17.96939341 2.4140625 15.6484375 C2.45273437 14.79765625 2.49140625 13.946875 2.53125 13.0703125 C2.5621875 12.18085938 2.593125 11.29140625 2.625 10.375 C2.66367187 9.4778125 2.70234375 8.580625 2.7421875 7.65625 C2.83659357 5.4377073 2.92216748 3.21917597 3 1 C2.01 0.67 1.02 0.34 0 0 Z " fill="#473632" transform="translate(287,258)"/>
<path d="M0 0 C2.70567626 1.82339052 4.53728718 3.07457436 6 6 C6.53118173 9.79415519 6.85089348 13.46331178 4.953125 16.890625 C2.0632428 20.39248226 0.23797875 21.8571563 -4.25 22.375 C-8.02099067 21.99790093 -10.05409102 21.30904145 -12.83203125 18.6875 C-15.11072089 15.39521262 -15.29649164 11.90955255 -15 8 C-13.78047108 4.34141324 -12.6576088 2.56627424 -9.75 0.0625 C-6.02880638 -1.3752339 -3.8329762 -1.02669005 0 0 Z M-9.375 2.375 C-11.88697479 6.43280543 -11.64668918 10.35286148 -11 15 C-9.83567931 17.48050929 -8.90574048 19.09425952 -7 21 C-3.51381119 20.90691463 -3.51381119 20.90691463 0 20 C2.15248379 16.94598891 2.29737972 14.16918758 2.3125 10.5 C2.32925781 9.5615625 2.34601563 8.623125 2.36328125 7.65625 C1.94063137 4.56590683 1.1773551 3.20802207 -1 1 C-4.50817286 0.40286419 -6.28935606 0.58857456 -9.375 2.375 Z " fill="#44312B" transform="translate(119,258)"/>
<path d="M0 0 C3 2.4375 3 2.4375 5 5 C5.33 5.33 5.66 5.66 6 6 C6.55720584 9.78103961 6.84003776 13.47978241 4.953125 16.89453125 C2.05962574 20.39226124 0.23780017 21.8571769 -4.25 22.375 C-9.19272958 21.88072704 -10.53828301 20.46171699 -14 17 C-15.87284445 13.25431111 -15.32627263 9.19633296 -14.25 5.25 C-11.0545855 -0.5017461 -6.16700576 -1.2202097 0 0 Z M-9.375 2.375 C-11.88697479 6.43280543 -11.64668918 10.35286148 -11 15 C-9.83567931 17.48050929 -8.90574048 19.09425952 -7 21 C-3.51381119 20.90691463 -3.51381119 20.90691463 0 20 C2.15248379 16.94598891 2.29737972 14.16918758 2.3125 10.5 C2.32925781 9.5615625 2.34601563 8.623125 2.36328125 7.65625 C1.94063137 4.56590683 1.1773551 3.20802207 -1 1 C-4.50817286 0.40286419 -6.28935606 0.58857456 -9.375 2.375 Z " fill="#3F2D2A" transform="translate(68,258)"/>
<path d="M0 0 C1.79244141 0.01740234 1.79244141 0.01740234 3.62109375 0.03515625 C5.41740234 0.04869141 5.41740234 0.04869141 7.25 0.0625 C8.17683594 0.07410156 9.10367188 0.08570313 10.05859375 0.09765625 C10.05859375 2.07765625 10.05859375 4.05765625 10.05859375 6.09765625 C9.54296875 5.43765625 9.02734375 4.77765625 8.49609375 4.09765625 C6.11771459 1.78225521 6.11771459 1.78225521 2.49609375 1.66015625 C-0.82452154 1.79335209 -0.82452154 1.79335209 -2.6015625 3.3515625 C-5.04108185 6.53076118 -5.03725956 10.19505704 -4.94140625 14.09765625 C-4.16501305 17.17219185 -4.16501305 17.17219185 -1.94140625 19.09765625 C1.15363857 19.80354367 3.89545587 20.09765625 7.05859375 20.09765625 C7.05859375 17.12765625 7.05859375 14.15765625 7.05859375 11.09765625 C6.39859375 10.76765625 5.73859375 10.43765625 5.05859375 10.09765625 C7.03859375 10.09765625 9.01859375 10.09765625 11.05859375 10.09765625 C10.72859375 13.72765625 10.39859375 17.35765625 10.05859375 21.09765625 C7.28807194 22.02116352 5.49170617 22.2609521 2.62109375 22.28515625 C1.85925781 22.29933594 1.09742187 22.31351562 0.3125 22.328125 C-3.31007992 21.95770522 -5.34988235 20.79480942 -7.69140625 18.03515625 C-9.41048344 13.99532484 -9.81072483 10.42075406 -8.94140625 6.09765625 C-6.50390625 3.09765625 -6.50390625 3.09765625 -3.94140625 1.09765625 C-2.94140625 0.09765625 -2.94140625 0.09765625 0 0 Z " fill="#4A3A37" transform="translate(87.94140625,257.90234375)"/>
<path d="M0 0 C4.95 0 9.9 0 15 0 C14.67 1.32 14.34 2.64 14 4 C13.67 3.34 13.34 2.68 13 2 C10.36 2 7.72 2 5 2 C4.67 4.64 4.34 7.28 4 10 C9.01535052 9.67039784 9.01535052 9.67039784 13 7 C13 9.31 13 11.62 13 14 C12.67 13.01 12.34 12.02 12 11 C9.36 11 6.72 11 4 11 C4 13.97 4 16.94 4 20 C7.3 20 10.6 20 14 20 C14.33 18.68 14.66 17.36 15 16 C15.66 16 16.32 16 17 16 C16.34 17.98 15.68 19.96 15 22 C9.39 22 3.78 22 -2 22 C-1.34 21.34 -0.68 20.68 0 20 C0.27714896 17.86747907 0.27714896 17.86747907 0.1953125 15.4296875 C0.18564453 14.08583984 0.18564453 14.08583984 0.17578125 12.71484375 C0.15064453 11.30912109 0.15064453 11.30912109 0.125 9.875 C0.11146484 8.45767578 0.11146484 8.45767578 0.09765625 7.01171875 C0.07404668 4.67437173 0.03817494 2.33715451 0 0 Z " fill="#584A47" transform="translate(267,258)"/>
<path d="M0 0 C5.61 0 11.22 0 17 0 C16.67 1.32 16.34 2.64 16 4 C15.67 3.01 15.34 2.02 15 1 C12.03 1 9.06 1 6 1 C6 3.97 6 6.94 6 10 C11.01535052 9.67039784 11.01535052 9.67039784 15 7 C15 9.31 15 11.62 15 14 C14.34 13.34 13.68 12.68 13 12 C10.67724823 11.59952556 8.34260643 11.2602896 6 11 C6 13.97 6 16.94 6 20 C12.38899228 19.64508889 12.38899228 19.64508889 18 17 C17.67 18.65 17.34 20.3 17 22 C11.39 22 5.78 22 0 22 C0.66 21.34 1.32 20.68 2 20 C2.36894582 17.96939341 2.36894582 17.96939341 2.4140625 15.6484375 C2.45273437 14.79765625 2.49140625 13.946875 2.53125 13.0703125 C2.5621875 12.18085938 2.593125 11.29140625 2.625 10.375 C2.66367187 9.4778125 2.70234375 8.580625 2.7421875 7.65625 C2.83659357 5.4377073 2.92216748 3.21917597 3 1 C2.01 0.67 1.02 0.34 0 0 Z " fill="#493733" transform="translate(311,258)"/>
<path d="M0 0 C2.97 0 5.94 0 9 0 C9.33 1.98 9.66 3.96 10 6 C10.99 6 11.98 6 13 6 C14.71711243 3.55503957 14.71711243 3.55503957 16 1 C15.34 0.67 14.68 0.34 14 0 C16.31 0 18.62 0 21 0 C20.57847656 0.45890625 20.15695313 0.9178125 19.72265625 1.390625 C19.17480469 2.00421875 18.62695312 2.6178125 18.0625 3.25 C17.24458984 4.15492188 17.24458984 4.15492188 16.41015625 5.078125 C14.87803209 7.16622774 14.21454346 8.42048911 14 11 C14.84752505 13.1003299 14.84752505 13.1003299 16.25 15.0625 C16.90742188 16.06990234 16.90742188 16.06990234 17.578125 17.09765625 C19.14343628 19.28648565 19.14343628 19.28648565 22 22 C19.03 22 16.06 22 13 22 C13.33 20.68 13.66 19.36 14 18 C11.64573501 15.22877725 11.64573501 15.22877725 9 13 C8.71125 13.639375 8.4225 14.27875 8.125 14.9375 C7 17 7 17 5 18 C5.309375 17.443125 5.61875 16.88625 5.9375 16.3125 C7.13725312 13.70127262 7.86251637 11.8871562 8 9 C5.89799422 5.1073967 3.72561333 2.39503714 0 0 Z " fill="#594B48" transform="translate(183,258)"/>
<path d="M0 0 C5.94 0 11.88 0 18 0 C18 1.65 18 3.3 18 5 C17.67 4.01 17.34 3.02 17 2 C15.02 2 13.04 2 11 2 C11.14046255 4.95867918 11.28712224 7.91682264 11.4375 10.875 C11.47681641 11.71675781 11.51613281 12.55851562 11.55664062 13.42578125 C11.61948242 14.63427734 11.61948242 14.63427734 11.68359375 15.8671875 C11.72025146 16.61081543 11.75690918 17.35444336 11.79467773 18.12060547 C11.89955865 20.08864312 11.89955865 20.08864312 13 22 C10.36 22 7.72 22 5 22 C5.33 21.34 5.66 20.68 6 20 C6.15004973 18.6265365 6.24838006 17.2471474 6.31640625 15.8671875 C6.35830078 15.06152344 6.40019531 14.25585938 6.44335938 13.42578125 C6.48267578 12.58402344 6.52199219 11.74226563 6.5625 10.875 C6.62727539 9.60076172 6.62727539 9.60076172 6.69335938 8.30078125 C6.79954236 6.20071777 6.90028497 4.10038052 7 2 C3.06924356 2.57452746 3.06924356 2.57452746 0 5 C0 3.35 0 1.7 0 0 Z " fill="#7B6E6B" transform="translate(139,258)"/>
<path d="M0 0 C5.28 0 10.56 0 16 0 C15.67 0.99 15.34 1.98 15 3 C14.67 2.67 14.34 2.34 14 2 C12.65252916 1.76924918 11.29622435 1.58846937 9.9375 1.4375 C8.638125 1.293125 7.33875 1.14875 6 1 C6 3.97 6 6.94 6 10 C8.64 9.67 11.28 9.34 14 9 C13.67 9.99 13.34 10.98 13 12 C10.69 11.67 8.38 11.34 6 11 C6 13.97 6 16.94 6 20 C8.1346875 19.8453125 8.1346875 19.8453125 10.3125 19.6875 C11.11300781 19.62949219 11.91351563 19.57148438 12.73828125 19.51171875 C15.36272334 18.91793306 16.30820672 18.04219706 18 16 C17.125 20.875 17.125 20.875 16 22 C13.30345146 22.07319621 10.63308542 22.09242537 7.9375 22.0625 C7.17888672 22.05798828 6.42027344 22.05347656 5.63867188 22.04882812 C3.75908129 22.0370068 1.87953101 22.01907078 0 22 C0.66 21.34 1.32 20.68 2 20 C2.36894582 17.96939341 2.36894582 17.96939341 2.4140625 15.6484375 C2.45273438 14.79765625 2.49140625 13.946875 2.53125 13.0703125 C2.5621875 12.18085938 2.593125 11.29140625 2.625 10.375 C2.66367188 9.4778125 2.70234375 8.580625 2.7421875 7.65625 C2.83659357 5.4377073 2.92216748 3.21917597 3 1 C2.01 0.67 1.02 0.34 0 0 Z " fill="#43322F" transform="translate(161,258)"/>
<path d="M0 0 C0.33 0 0.66 0 1 0 C2.20568053 4.67201205 2.09382426 9.21496292 2 14 C2.99 13.67 3.98 13.34 5 13 C6.39439664 12.93334624 7.79169875 12.91461801 9.1875 12.9375 C11.0746875 12.9684375 11.0746875 12.9684375 13 13 C11 15 11 15 1 17 C0.34 28.22 -0.32 39.44 -1 51 C-0.34 51.33 0.32 51.66 1 52 C0.01 52 -0.98 52 -2 52 C-3.89188337 34.51717414 -1.85756154 17.39692801 0 0 Z " fill="#E1D5CB" transform="translate(155,174)"/>
<path d="M0 0 C-0.99 0.33 -1.98 0.66 -3 1 C-2.34 1.66 -1.68 2.32 -1 3 C-1.969375 3.12375 -2.93875 3.2475 -3.9375 3.375 C-5.4534375 3.684375 -5.4534375 3.684375 -7 4 C-8.28605661 6.57211322 -8.21043941 8.56906966 -8.31640625 11.4453125 C-8.35830078 12.52167969 -8.40019531 13.59804687 -8.44335938 14.70703125 C-8.48267578 15.83496094 -8.52199219 16.96289062 -8.5625 18.125 C-8.60568359 19.26066406 -8.64886719 20.39632812 -8.69335938 21.56640625 C-8.7996604 24.37747768 -8.90169405 27.18863945 -9 30 C-9.33 30 -9.66 30 -10 30 C-10 21.75 -10 13.5 -10 5 C-13.3 5.66 -16.6 6.32 -20 7 C-21.32 7 -22.64 7 -24 7 C-24 6.34 -24 5.68 -24 5 C-24.99 4.34 -25.98 3.68 -27 3 C-23.25239331 2.29899918 -19.50163915 1.61656013 -15.75 0.9375 C-14.68652344 0.73833984 -13.62304688 0.53917969 -12.52734375 0.33398438 C-10.99013672 0.05844727 -10.99013672 0.05844727 -9.421875 -0.22265625 C-8.47924805 -0.39547119 -7.53662109 -0.56828613 -6.56542969 -0.74633789 C-4.04822766 -0.99523139 -2.38219113 -0.78671127 0 0 Z " fill="#EBE4DE" transform="translate(192,152)"/>
<path d="M0 0 C0.495 1.98 0.495 1.98 1 4 C-2.33155198 6.75028808 -5.70764719 9.16395345 -9.38671875 11.42578125 C-10.40830078 12.05806641 -11.42988281 12.69035156 -12.48242188 13.34179688 C-13.54009766 13.99212891 -14.59777344 14.64246094 -15.6875 15.3125 C-23.29339551 19.99123522 -30.74699699 24.78756637 -38 30 C-38.66 29.67 -39.32 29.34 -40 29 C-32.56791297 23.58145196 -25.11518513 18.19193124 -17.65722656 12.80908203 C-11.76164838 8.55282917 -5.87562533 4.28377089 0 0 Z " fill="#44312E" transform="translate(176,78)"/>
<path d="M0 0 C3.5 -0.3125 3.5 -0.3125 7 0 C9 2 9 2 9.25 5.5 C9 9 9 9 7 11 C3.86295684 11.333728 1.83445834 11.52849028 -0.875 9.8125 C-2.3920891 7.36830089 -2.35384949 5.83079592 -2 3 C-1.34 2.01 -0.68 1.02 0 0 Z " fill="#433530" transform="translate(121,292)"/>
<path d="M0 0 C2.97 0 5.94 0 9 0 C8.01 0.33 7.02 0.66 6 1 C6 7.27 6 13.54 6 20 C14.63559456 19.98910049 14.63559456 19.98910049 18 16 C17.125 20.875 17.125 20.875 16 22 C13.30345146 22.07319621 10.63308542 22.09242537 7.9375 22.0625 C7.17888672 22.05798828 6.42027344 22.05347656 5.63867188 22.04882812 C3.75908129 22.0370068 1.87953101 22.01907078 0 22 C0.66 21.34 1.32 20.68 2 20 C2.30903289 18.09771695 2.30903289 18.09771695 2.265625 15.9375 C2.26820312 15.14085937 2.27078125 14.34421875 2.2734375 13.5234375 C2.26570313 12.69070313 2.25796875 11.85796875 2.25 11 C2.25773437 10.16726563 2.26546875 9.33453125 2.2734375 8.4765625 C2.27085938 7.67992187 2.26828125 6.88328125 2.265625 6.0625 C2.26336914 5.33160156 2.26111328 4.60070312 2.25878906 3.84765625 C2.15448561 1.75302636 2.15448561 1.75302636 0 0 Z " fill="#463531" transform="translate(31,258)"/>
<path d="M0 0 C5.3762621 2.91214197 10.17918273 6.24351901 15 10 C14.01 10.66 13.02 11.32 12 12 C11.67 12.99 11.34 13.98 11 15 C11.721875 15.226875 12.44375 15.45375 13.1875 15.6875 C16.53209313 17.24831013 18.51603959 19.3031287 21 22 C14.07980785 19.69326928 8.95803154 15.22603324 4 10 C3.236875 9.236875 2.47375 8.47375 1.6875 7.6875 C1.130625 7.130625 0.57375 6.57375 0 6 C0.66 4.68 1.32 3.36 2 2 C1.34 2 0.68 2 0 2 C0 1.34 0 0.68 0 0 Z " fill="#E3DFDB" transform="translate(207,88)"/>
<path d="M0 0 C5.61 0 11.22 0 17 0 C16.67 0.99 16.34 1.98 16 3 C13.03 2.505 13.03 2.505 10 2 C10.11358476 4.95918198 10.24033086 7.91676783 10.375 10.875 C10.4059375 11.71675781 10.436875 12.55851562 10.46875 13.42578125 C10.50742188 14.23144531 10.54609375 15.03710938 10.5859375 15.8671875 C10.6173584 16.61081543 10.6487793 17.35444336 10.68115234 18.12060547 C10.85419551 20.24010974 10.85419551 20.24010974 13 22 C10.03 22 7.06 22 4 22 C4.66 21.34 5.32 20.68 6 20 C6.36894582 17.96939341 6.36894582 17.96939341 6.4140625 15.6484375 C6.47207031 14.37226563 6.47207031 14.37226563 6.53125 13.0703125 C6.5621875 12.18085938 6.593125 11.29140625 6.625 10.375 C6.66367188 9.4778125 6.70234375 8.580625 6.7421875 7.65625 C6.83659357 5.4377073 6.92216748 3.21917597 7 1 C4.69 1.66 2.38 2.32 0 3 C0 2.01 0 1.02 0 0 Z " fill="#4B3B37" transform="translate(209,258)"/>
<path d="M0 0 C10.56 0.66 21.12 1.32 32 2 C30.02 2.99 30.02 2.99 28 4 C34.6 4.33 41.2 4.66 48 5 C48 5.33 48 5.66 48 6 C10.88967574 7.25978382 10.88967574 7.25978382 0 0 Z " fill="#70615D" transform="translate(100,152)"/>
<path d="M0 0 C2.64 0 5.28 0 8 0 C8.66 2.97 9.32 5.94 10 9 C6.7 9 3.4 9 0 9 C0 6.03 0 3.06 0 0 Z " fill="#FBFAFA" transform="translate(271,269)"/>
<path d="M0 0 C2.97 0 5.94 0 9 0 C9 2.97 9 5.94 9 9 C6.03 9 3.06 9 0 9 C0 6.03 0 3.06 0 0 Z " fill="#67391B" transform="translate(182,123)"/>
<path d="M0 0 C2.97 0 5.94 0 9 0 C9 2.97 9 5.94 9 9 C6.03 9 3.06 9 0 9 C0 6.03 0 3.06 0 0 Z " fill="#67391B" transform="translate(169,123)"/>
<path d="M0 0 C2.97 0 5.94 0 9 0 C9 2.97 9 5.94 9 9 C6.03 9 3.06 9 0 9 C0 6.03 0 3.06 0 0 Z " fill="#6A3B1C" transform="translate(182,111)"/>
<path d="M0 0 C2.97 0 5.94 0 9 0 C9 2.97 9 5.94 9 9 C6.03 9 3.06 9 0 9 C0 6.03 0 3.06 0 0 Z " fill="#6A3B1C" transform="translate(169,111)"/>
<path d="M0 0 C-0.99 0 -1.98 0 -3 0 C-1.74458443 2.51083114 -0.49936512 2.87125446 2 4 C-6.68836995 5.20731692 -15.20294908 6.38064163 -24 6 C-22.5699347 3.13986939 -21.00063331 3.02192532 -18 2 C-15.65746133 1.39088628 -13.30177555 0.83087058 -10.9375 0.3125 C-9.72964844 0.04050781 -8.52179688 -0.23148438 -7.27734375 -0.51171875 C-4.3359546 -0.94994717 -2.73743397 -1.01715127 0 0 Z " fill="#F0EBE8" transform="translate(212,148)"/>
<path d="M0 0 C2.64 0 5.28 0 8 0 C8.79953138 3.28696233 9.09658936 4.71023192 8 8 C8.33 8.99 8.66 9.98 9 11 C6.50638429 9.79618552 4.31856917 8.54571278 2 7 C2 8.32 2 9.64 2 11 C1.34 11 0.68 11 0 11 C0 7.37 0 3.74 0 0 Z " fill="#685B58" transform="translate(250,292)"/>
<path d="M0 0 C2.64 0 5.28 0 8 0 C8 0.99 8 1.98 8 3 C8.33 3.66 8.66 4.32 9 5 C9.13415472 7.6723621 9.04318541 10.32250488 9 13 C8.34 12.34 7.68 11.68 7 11 C7 10.34 7 9.68 7 9 C4.69 9 2.38 9 0 9 C0 6.03 0 3.06 0 0 Z " fill="#E2DFDC" transform="translate(167,259)"/>
<path d="M0 0 C2.97 0 5.94 0 9 0 C9 0.66 9 1.32 9 2 C7.02 2 5.04 2 3 2 C3 2.66 3 3.32 3 4 C4.98 4 6.96 4 9 4 C9 4.99 9 5.98 9 7 C7.02 7 5.04 7 3 7 C3 7.66 3 8.32 3 9 C4.98 9 6.96 9 9 9 C9 9.66 9 10.32 9 11 C6.03 11 3.06 11 0 11 C0 7.37 0 3.74 0 0 Z " fill="#5F4F4C" transform="translate(231,292)"/>
<path d="M0 0 C2.97 0 5.94 0 9 0 C9 0.66 9 1.32 9 2 C7.02 2 5.04 2 3 2 C3 2.66 3 3.32 3 4 C4.98 4 6.96 4 9 4 C9 4.99 9 5.98 9 7 C7.02 7 5.04 7 3 7 C3 7.66 3 8.32 3 9 C4.98 9 6.96 9 9 9 C9 9.66 9 10.32 9 11 C6.03 11 3.06 11 0 11 C0 7.37 0 3.74 0 0 Z " fill="#5F4F4E" transform="translate(268,292)"/>
<path d="M0 0 C0.33 0 0.66 0 1 0 C1.76140684 7.61406844 1.76140684 7.61406844 -0.04296875 10.8984375 C-2.94569746 14.38852187 -4.76018611 15.85694455 -9.25 16.375 C-14.14837783 15.88516222 -15.54077065 14.3748579 -19 11 C-18.34 7.7 -17.68 4.4 -17 1 C-16.67 1 -16.34 1 -16 1 C-15.87882812 1.77085937 -15.75765625 2.54171875 -15.6328125 3.3359375 C-15.46523438 4.33882813 -15.29765625 5.34171875 -15.125 6.375 C-14.96257813 7.37273437 -14.80015625 8.37046875 -14.6328125 9.3984375 C-14.2041198 12.1425115 -14.2041198 12.1425115 -12 14 C-8.40320934 13.67673447 -8.40320934 13.67673447 -5 13 C-4.34 9.04 -3.68 5.08 -3 1 C-2.67 1 -2.34 1 -2 1 C-1.67 2.98 -1.34 4.96 -1 7 C-0.67 4.69 -0.34 2.38 0 0 Z " fill="#4B3C39" transform="translate(73,264)"/>
<path d="M0 0 C1.32 0.33 2.64 0.66 4 1 C3.88325099 2.35490296 3.75606577 3.70890696 3.625 5.0625 C3.55539063 5.81660156 3.48578125 6.57070312 3.4140625 7.34765625 C2.90250577 10.62451493 1.91112591 13.81105932 1 17 C-5.93 17 -12.86 17 -20 17 C-20 16.67 -20 16.34 -20 16 C-18.79601562 15.96261719 -17.59203125 15.92523438 -16.3515625 15.88671875 C-14.77600989 15.82107072 -13.20049046 15.75462299 -11.625 15.6875 C-10.8309375 15.66494141 -10.036875 15.64238281 -9.21875 15.61914062 C-7.13784419 15.52214925 -5.06558668 15.27005175 -3 15 C-0.73045369 11.59568053 -0.63450051 9.83475798 -0.375 5.8125 C-0.30023438 4.72582031 -0.22546875 3.63914063 -0.1484375 2.51953125 C-0.09945312 1.68808594 -0.05046875 0.85664063 0 0 Z " fill="#8C5D39" transform="translate(124,176)"/>
<path d="M0 0 C1.65 0 3.3 0 5 0 C7 2 7 2 7.375 4.375 C6.887871 7.78490297 5.65554604 8.89118402 3 11 C2.34 11 1.68 11 1 11 C1 13.64 1 16.28 1 19 C0.67 19 0.34 19 0 19 C0 12.73 0 6.46 0 0 Z " fill="#DDD8D7" transform="translate(293,259)"/>
<path d="M0 0 C0.99 0 1.98 0 3 0 C3.67119549 1.4562545 4.33681807 2.91507867 5 4.375 C5.556875 5.59316406 5.556875 5.59316406 6.125 6.8359375 C7 9 7 9 7 11 C6.37351563 10.91621094 5.74703125 10.83242188 5.1015625 10.74609375 C4.28429687 10.64425781 3.46703125 10.54242188 2.625 10.4375 C1.40683594 10.28087891 1.40683594 10.28087891 0.1640625 10.12109375 C-2.04899186 9.81762672 -2.04899186 9.81762672 -4 11 C-3.49516338 6.65840504 -2.68099266 3.50591348 0 0 Z " fill="#635452" transform="translate(164,292)"/>
<path d="M0 0 C0.33 0 0.66 0 1 0 C1 7.92 1 15.84 1 24 C1.99 24.33 2.98 24.66 4 25 C-8.63829787 29.57909343 -8.63829787 29.57909343 -15 30 C-15.66 29.34 -16.32 28.68 -17 28 C-14.73050898 27.32844651 -12.4596039 26.6626037 -10.1875 26 C-8.29064453 25.443125 -8.29064453 25.443125 -6.35546875 24.875 C-3 24 -3 24 0 24 C0 16.08 0 8.16 0 0 Z " fill="#ECE0D4" transform="translate(183,158)"/>
<path d="M0 0 C0.33 0 0.66 0 1 0 C1 1.65 1 3.3 1 5 C1.66 5 2.32 5 3 5 C3.125 10.75 3.125 10.75 2 13 C2.061875 13.94875 2.12375 14.8975 2.1875 15.875 C2 19 2 19 0 21.375 C-0.66 21.91125 -1.32 22.4475 -2 23 C-3.52550178 18.03959354 -2.48471946 13.65963638 -1.5625 8.6875 C-1.41490234 7.85154297 -1.26730469 7.01558594 -1.11523438 6.15429688 C-0.75158098 4.10141479 -0.3768822 2.05049468 0 0 Z " fill="#6A3E20" transform="translate(132,163)"/>
<path d="M0 0 C0.33 0 0.66 0 1 0 C1.99939172 7.22533204 1.96290189 12.95664616 0 20 C2.97 19.67 5.94 19.34 9 19 C8.67 19.66 8.34 20.32 8 21 C7.01 21 6.02 21 5 21 C4.67 21.66 4.34 22.32 4 23 C3.67 22.67 3.34 22.34 3 22 C1.33391013 21.95615553 -0.33380554 21.9603287 -2 22 C-2.99 22 -3.98 22 -5 22 C-4.01 20.515 -4.01 20.515 -3 19 C-2.45642729 16.88158412 -2.45642729 16.88158412 -2.1484375 14.55078125 C-2.01953125 13.70322266 -1.890625 12.85566406 -1.7578125 11.98242188 C-1.63148437 11.10134766 -1.50515625 10.22027344 -1.375 9.3125 C-1.2409375 8.41982422 -1.106875 7.52714844 -0.96875 6.60742188 C-0.63910373 4.40585573 -0.31646086 2.20349353 0 0 Z " fill="#E4D8CF" transform="translate(121,213)"/>
<path d="M0 0 C0.99 0.495 0.99 0.495 2 1 C1.67 2.65 1.34 4.3 1 6 C1.66 6 2.32 6 3 6 C3.33 11.94 3.66 17.88 4 24 C3.01 23.67 2.02 23.34 1 23 C1.33 24.32 1.66 25.64 2 27 C1.34 27 0.68 27 0 27 C0 18.09 0 9.18 0 0 Z " fill="#9C6845" transform="translate(116,122)"/>
<path d="M0 0 C0.33 0 0.66 0 1 0 C2.64402584 7.79681718 1.06769927 14.76571235 -0.4375 22.5 C-0.68404141 23.81229406 -0.9294934 25.12479329 -1.17382812 26.4375 C-1.77189268 29.62717765 -2.38088693 32.81435292 -3 36 C-3.33 36 -3.66 36 -4 36 C-5.0379372 31.28669247 -4.83444621 27.59171737 -4.00390625 22.8515625 C-3.89151108 22.19417084 -3.77911591 21.53677917 -3.66331482 20.85946655 C-3.30555857 18.77959342 -2.93427463 16.70240819 -2.5625 14.625 C-2.31615629 13.2071875 -2.07070455 11.78921972 -1.82617188 10.37109375 C-1.22775163 6.91220668 -0.61718375 3.45559438 0 0 Z " fill="#E5DAD0" transform="translate(130,162)"/>
<path d="M0 0 C3.60674662 1.76329835 6.5930807 3.97621699 9.8125 6.375 C9.4825 7.365 9.1525 8.355 8.8125 9.375 C5.8405615 8.25048273 3.47809313 7.15206209 0.8125 5.375 C-2.31271833 5.20800768 -2.31271833 5.20800768 -5.1875 5.375 C-4.8125 2.9375 -4.8125 2.9375 -4.1875 0.375 C-2.1875 -0.625 -2.1875 -0.625 0 0 Z " fill="#3F2C28" transform="translate(181.1875,76.625)"/>
<path d="M0 0 C0.66 0 1.32 0 2 0 C2 1.32 2 2.64 2 4 C3.65 4 5.3 4 7 4 C7 2.68 7 1.36 7 0 C7.66 0 8.32 0 9 0 C9 3.63 9 7.26 9 11 C8.34 11 7.68 11 7 11 C7 9.68 7 8.36 7 7 C5.35 7 3.7 7 2 7 C2 8.32 2 9.64 2 11 C1.34 11 0.68 11 0 11 C0 7.37 0 3.74 0 0 Z " fill="#534341" transform="translate(212,292)"/>
<path d="M0 0 C4 2 4 2 6 5 C6.33 3.35 6.66 1.7 7 0 C7.66 0 8.32 0 9 0 C9 3.63 9 7.26 9 11 C8.34 11 7.68 11 7 11 C5.61061923 9.03852126 4.2739589 7.03833424 3 5 C2.67 6.98 2.34 8.96 2 11 C1.34 11 0.68 11 0 11 C0 7.37 0 3.74 0 0 Z " fill="#412E2C" transform="translate(181,292)"/>
<path d="M0 0 C0.33 0.99 0.66 1.98 1 3 C0.030625 2.979375 -0.93875 2.95875 -1.9375 2.9375 C-4.87465895 2.64381501 -4.87465895 2.64381501 -6 4 C-6.04063832 5.66617115 -6.042721 7.33388095 -6 9 C-4.35 9.33 -2.7 9.66 -1 10 C-1 9.01 -1 8.02 -1 7 C-1.66 6.67 -2.32 6.34 -3 6 C-1.68 6 -0.36 6 1 6 C1.042721 7.66611905 1.04063832 9.33382885 1 11 C0 12 0 12 -3.4375 12.25 C-4.613125 12.1675 -5.78875 12.085 -7 12 C-9 9 -9 9 -8.8125 5.4375 C-7.54516738 0.07570816 -5.02641835 -0.27169829 0 0 Z " fill="#4C3B3A" transform="translate(149,291)"/>
<path d="M0 0 C4.62 0 9.24 0 14 0 C14 0.33 14 0.66 14 1 C9.71 1 5.42 1 1 1 C1.22816406 2.45792969 1.45632812 3.91585937 1.69140625 5.41796875 C1.98221793 7.34107828 2.27255784 9.26425919 2.5625 11.1875 C2.71396484 12.14720703 2.86542969 13.10691406 3.02148438 14.09570312 C3.16005859 15.02705078 3.29863281 15.95839844 3.44140625 16.91796875 C3.57232666 17.77156982 3.70324707 18.6251709 3.83813477 19.50463867 C4.01245125 22.19195204 3.63876982 24.39390077 3 27 C2.67 27 2.34 27 2 27 C1.46548637 23.43941339 0.94981636 19.87634262 0.4375 16.3125 C0.28603516 15.30509766 0.13457031 14.29769531 -0.02148438 13.25976562 C-0.16005859 12.28330078 -0.29863281 11.30683594 -0.44140625 10.30078125 C-0.57232666 9.40528564 -0.70324707 8.50979004 -0.83813477 7.5871582 C-1 5 -1 5 0 0 Z " fill="#D6CAC1" transform="translate(237,173)"/>
<path d="M0 0 C0 1.65 0 3.3 0 5 C-0.66 4.34 -1.32 3.68 -2 3 C-2.99 3.495 -2.99 3.495 -4 4 C-10.55762352 4.35768856 -16.58642222 3.32044248 -23 2 C-23 1.67 -23 1.34 -23 1 C-15.31516461 0.32546899 -7.71589817 -0.1567564 0 0 Z " fill="#6C3F23" transform="translate(156,161)"/>
<path d="M0 0 C0 0.66 0 1.32 0 2 C-2.97 1.505 -2.97 1.505 -6 1 C-6 1.99 -6 2.98 -6 4 C-5.195625 3.979375 -4.39125 3.95875 -3.5625 3.9375 C-1 4 -1 4 0 5 C0.125 7.5 0.125 7.5 0 10 C-1 11 -1 11 -4.5625 11.0625 C-5.696875 11.041875 -6.83125 11.02125 -8 11 C-8.33 10.01 -8.66 9.02 -9 8 C-6.36 8.33 -3.72 8.66 -1 9 C-1.89335797 6.64214682 -1.89335797 6.64214682 -5.0625 5.875 C-6.031875 5.58625 -7.00125 5.2975 -8 5 C-8 3.35 -8 1.7 -8 0 C-5.13822943 -1.43088528 -3.06624227 -0.59991697 0 0 Z " fill="#544442" transform="translate(92,292)"/>
<path d="M0 0 C2.93896818 1.85282776 4.62308266 2.9562289 5.8125 6.25 C5.874375 6.8275 5.93625 7.405 6 8 C5.01 8 4.02 8 3 8 C3 10.31 3 12.62 3 15 C2.67 15 2.34 15 2 15 C1.92652344 13.96939453 1.92652344 13.96939453 1.8515625 12.91796875 C1.73941406 11.56638672 1.73941406 11.56638672 1.625 10.1875 C1.55539063 9.29417969 1.48578125 8.40085937 1.4140625 7.48046875 C1.13354964 4.75601501 1.13354964 4.75601501 -1 2 C-3.95769177 1.49989476 -3.95769177 1.49989476 -7 2 C-8.68798827 3.43750191 -8.68798827 3.43750191 -10 5 C-10.99 5 -11.98 5 -13 5 C-12 2 -12 2 -9.875 0.25 C-6.06767673 -1.40535794 -3.98377228 -1.06708186 0 0 Z " fill="#635754" transform="translate(119,258)"/>
<path d="M0 0 C2.12508244 3.18762365 2.5020163 5.26512223 3 9 C-0.51705958 8.34728444 -3.89325077 7.48606976 -7.3125 6.4375 C-8.19550781 6.16808594 -9.07851563 5.89867187 -9.98828125 5.62109375 C-10.65214844 5.41613281 -11.31601562 5.21117187 -12 5 C-11.67 4.34 -11.34 3.68 -11 3 C-7.7 3 -4.4 3 -1 3 C-0.67 2.01 -0.34 1.02 0 0 Z " fill="#764D31" transform="translate(297,198)"/>
<path d="M0 0 C2.75 -0.25 2.75 -0.25 6 0 C8.375 2 8.375 2 10 4 C9.01 4.33 8.02 4.66 7 5 C5.97296252 10.55493924 5.97296252 10.55493924 7 16 C5.68 15.67 4.36 15.34 3 15 C3 12.87408108 3.06957524 10.74764575 3.1875 8.625 C2.98853842 4.77840951 2.23161885 3.06847592 0 0 Z " fill="#402D2A" transform="translate(249,122)"/>
<path d="M0 0 C0.33 0 0.66 0 1 0 C2.20568053 4.67201205 2.09382426 9.21496292 2 14 C2.99 13.67 3.98 13.34 5 13 C6.39439664 12.93334624 7.79169875 12.91461801 9.1875 12.9375 C11.0746875 12.9684375 11.0746875 12.9684375 13 13 C10.27835324 15.72164676 7.70485455 16.10572476 4 17 C2.68 17 1.36 17 0 17 C0 11.39 0 5.78 0 0 Z " fill="#E8DFD6" transform="translate(155,174)"/>
<path d="M0 0 C3.0625 0.25 3.0625 0.25 6 1 C7.35439668 3.70879335 7.06501451 6.00933268 7 9 C6.67 9 6.34 9 6 9 C6 7.35 6 5.7 6 4 C5.01 4.495 5.01 4.495 4 5 C4 5.99 4 6.98 4 8 C2.33388095 8.042721 0.66617115 8.04063832 -1 8 C-2 7 -2 7 -2.1875 4.5625 C-2 2 -2 2 0 0 Z " fill="#D7D2D0" transform="translate(144,293)"/>
<path d="M0 0 C0.66 0 1.32 0 2 0 C2 6.27 2 12.54 2 19 C2.99 19.33 3.98 19.66 5 20 C5 20.33 5 20.66 5 21 C2.36 21 -0.28 21 -3 21 C-2.67 20.34 -2.34 19.68 -2 19 C-1.34 19 -0.68 19 0 19 C0 12.73 0 6.46 0 0 Z " fill="#412F29" transform="translate(147,259)"/>
<path d="M0 0 C1 4 1 4 1 4 Z M-13 3 C-11.66528865 3.32777203 -10.33223009 3.66228433 -9 4 C-7.41788427 4.06548492 -5.83329919 4.08578381 -4.25 4.0625 C-3.05117188 4.04896484 -3.05117188 4.04896484 -1.828125 4.03515625 C-0.92320312 4.01775391 -0.92320312 4.01775391 0 4 C0 5.32 0 6.64 0 8 C-1.32 8 -2.64 8 -4 8 C-4.33 8.66 -4.66 9.32 -5 10 C-5 9.34 -5 8.68 -5 8 C-5.928125 8.0825 -6.85625 8.165 -7.8125 8.25 C-11 8 -11 8 -12.875 6 C-13.24625 5.34 -13.6175 4.68 -14 4 C-13.67 3.67 -13.34 3.34 -13 3 Z " fill="#F3F0E9" transform="translate(263,149)"/>
<path d="M0 0 C2 3 2 3 2 5 C3.11375 5.12375 4.2275 5.2475 5.375 5.375 C9 6 9 6 11 8 C13.57061311 8.64767793 13.57061311 8.64767793 16 9 C15.01 10.485 15.01 10.485 14 12 C10.14974121 11.39644592 7.13898841 10.23227397 3.6875 8.4375 C2.80449219 7.98246094 1.92148437 7.52742187 1.01171875 7.05859375 C0.34785156 6.70925781 -0.31601562 6.35992187 -1 6 C-0.67 4.02 -0.34 2.04 0 0 Z " fill="#8B5D39" transform="translate(61,219)"/>
<path d="M0 0 C2.31 0.33 4.62 0.66 7 1 C7 1.66 7 2.32 7 3 C7.66 3 8.32 3 9 3 C9 4.32 9 5.64 9 7 C8.360625 7.12375 7.72125 7.2475 7.0625 7.375 C6.0415625 7.684375 6.0415625 7.684375 5 8 C4.67 8.66 4.34 9.32 4 10 C0.06153846 5.69230769 0.06153846 5.69230769 -0.25 2.1875 C-0.1675 1.465625 -0.085 0.74375 0 0 Z " fill="#834F25" transform="translate(212,84)"/>
<path d="M0 0 C2.64920076 0.94976983 5.29411973 1.90927908 7.9375 2.875 C8.69224609 3.14441406 9.44699219 3.41382813 10.22460938 3.69140625 C15.88671875 5.7734375 15.88671875 5.7734375 17 8 C9.6442203 9.00306087 4.3057121 5.47901358 -2 2 C-1.34 1.34 -0.68 0.68 0 0 Z " fill="#F2EEE8" transform="translate(78,184)"/>
<path d="M0 0 C0.99 0.33 1.98 0.66 3 1 C3 1.66 3 2.32 3 3 C3.66 3 4.32 3 5 3 C4.67 5.31 4.34 7.62 4 10 C3.071875 9.13375 3.071875 9.13375 2.125 8.25 C-1.96164315 5.30761693 -6.29353741 3.71808732 -11 2 C-6.74938644 0.58312881 -4.28148375 1.80679961 0 3 C0 2.01 0 1.02 0 0 Z " fill="#EAE5DE" transform="translate(290,177)"/>
<path d="M0 0 C0.33 0.99 0.66 1.98 1 3 C-5.93 7.62 -12.86 12.24 -20 17 C-20.66 16.67 -21.32 16.34 -22 16 C-14.66666667 10.66666667 -7.33333333 5.33333333 0 0 Z " fill="#5E5250" transform="translate(158,91)"/>
<path d="M0 0 C0.99 0 1.98 0 3 0 C3 2.97 3 5.94 3 9 C4.65 9 6.3 9 8 9 C8 9.66 8 10.32 8 11 C5.36 11 2.72 11 0 11 C0 7.37 0 3.74 0 0 Z " fill="#5E504E" transform="translate(102,292)"/>
<path d="M0 0 C-3.41239033 2.27492689 -6.55691014 2.96138203 -10.5 3.75 C-11.17675781 3.90082031 -11.85351562 4.05164063 -12.55078125 4.20703125 C-14.349574 4.57246646 -16.17599164 4.79459365 -18 5 C-18.99 4.34 -19.98 3.68 -21 3 C-18.44048255 2.29921555 -15.87840298 1.61414804 -13.3125 0.9375 C-12.2306543 0.63875977 -12.2306543 0.63875977 -11.12695312 0.33398438 C-7.07613527 -0.72033808 -4.1176542 -1.29133534 0 0 Z " fill="#E9DDD4" transform="translate(205,178)"/>
<path d="M0 0 C2.05078125 0.03255208 4.1015625 0.06510417 6.15234375 0.09765625 C6.81234375 1.41765625 7.47234375 2.73765625 8.15234375 4.09765625 C4.67909194 5.25540685 1.79166927 5.16632277 -1.84765625 5.09765625 C-2.41015625 3.16015625 -2.41015625 3.16015625 -2.84765625 1.09765625 C-1.84765625 0.09765625 -1.84765625 0.09765625 0 0 Z " fill="#3B2622" transform="translate(177.84765625,147.90234375)"/>
<path d="M0 0 C0.33 0 0.66 0 1 0 C1.04898437 1.27617187 1.09796875 2.55234375 1.1484375 3.8671875 C1.22346191 5.53648072 1.29900988 7.20575046 1.375 8.875 C1.4059375 9.71675781 1.436875 10.55851562 1.46875 11.42578125 C1.50742187 12.23144531 1.54609375 13.03710938 1.5859375 13.8671875 C1.6173584 14.61081543 1.6487793 15.35444336 1.68115234 16.12060547 C1.85419551 18.24010974 1.85419551 18.24010974 4 20 C1.03 20 -1.94 20 -5 20 C-4.67 19.34 -4.34 18.68 -4 18 C-3.34 18 -2.68 18 -2 18 C-1.34 12.06 -0.68 6.12 0 0 Z " fill="#60514E" transform="translate(258,260)"/>
<path d="M0 0 C1.61725534 3.00950123 2.67582623 5.97103608 3.625 9.25 C3.88539063 10.14203125 4.14578125 11.0340625 4.4140625 11.953125 C4.60742188 12.62859375 4.80078125 13.3040625 5 14 C4.01 13.67 3.02 13.34 2 13 C0.8125 9.4375 0.8125 9.4375 0 6 C-1.32 5.67 -2.64 5.34 -4 5 C-4.33 3.68 -4.66 2.36 -5 1 C-2.525 1.495 -2.525 1.495 0 2 C0 1.34 0 0.68 0 0 Z " fill="#8B5A33" transform="translate(285,164)"/>
<path d="M0 0 C1.98 0 3.96 0 6 0 C6 1.98 6 3.96 6 6 C4.34385343 6.38218767 2.67542976 6.71395102 1 7 C0 6 0 6 -0.0625 2.9375 C-0.041875 1.968125 -0.02125 0.99875 0 0 Z " fill="#F8F7F6" transform="translate(122,294)"/>
<path d="M0 0 C0.33 0 0.66 0 1 0 C1.33 4.29 1.66 8.58 2 13 C2.33 13 2.66 13 3 13 C3.12375 13.78375 3.2475 14.5675 3.375 15.375 C3.79117993 18.14057822 3.79117993 18.14057822 6 20 C3.03 20 0.06 20 -3 20 C-2.34 19.34 -1.68 18.68 -1 18 C-0.63168919 16.06742145 -0.63168919 16.06742145 -0.5859375 13.8671875 C-0.54726563 13.06152344 -0.50859375 12.25585938 -0.46875 11.42578125 C-0.4378125 10.58402344 -0.406875 9.74226563 -0.375 8.875 C-0.33632813 8.02550781 -0.29765625 7.17601562 -0.2578125 6.30078125 C-0.16343506 4.20088316 -0.08062414 2.10047109 0 0 Z " fill="#5F4F4D" transform="translate(290,260)"/>
<path d="M0 0 C0.66 0.66 1.32 1.32 2 2 C1.01 2.66 0.02 3.32 -1 4 C1.31 4 3.62 4 6 4 C3.44008376 6.01136276 0.95409701 7.62845496 -2 9 C-2.33 8.01 -2.66 7.02 -3 6 C-4.65 6.33 -6.3 6.66 -8 7 C-5.42215154 4.35247996 -3.08351902 2.05567935 0 0 Z " fill="#F6F1E9" transform="translate(120,111)"/>
<path d="M0 0 C2.31 0 4.62 0 7 0 C6.67 0.66 6.34 1.32 6 2 C5.72357336 5.37416015 5.55294991 8.74801561 5.37890625 12.12890625 C5.25386719 13.07636719 5.12882812 14.02382813 5 15 C4.01 15.495 4.01 15.495 3 16 C2.30360186 12.5180093 1.96568572 9.28694853 2.0625 5.75 C2.43414746 1.97066405 2.43414746 1.97066405 0 0 Z " fill="#331C19" transform="translate(253,258)"/>
<path d="M0 0 C2.97 0 5.94 0 9 0 C9.33 3.3 9.66 6.6 10 10 C6.66666667 6.66666667 3.33333333 3.33333333 0 0 Z " fill="#473735" transform="translate(183,258)"/>
<path d="M0 0 C8.15484303 0.44651878 16.04264468 1.11150323 24 3 C24 3.33 24 3.66 24 4 C15.49077472 4.40735653 8.1609778 3.43092956 0 1 C0 0.67 0 0.34 0 0 Z " fill="#695A56" transform="translate(100,152)"/>
<path d="M0 0 C-1 2.5 -1 2.5 -3 5 C-5.79374292 5.46837899 -8.14221036 5.23424505 -11 5 C-11 4.34 -11 3.68 -11 3 C-12.65 2.67 -14.3 2.34 -16 2 C-16 1.67 -16 1.34 -16 1 C-10.59255982 0.22750855 -5.46137814 -0.09752461 0 0 Z " fill="#54443F" transform="translate(240,138)"/>
<path d="M0 0 C0.33 0.66 0.66 1.32 1 2 C0.37351562 2.03738281 -0.25296875 2.07476562 -0.8984375 2.11328125 C-1.71570313 2.17902344 -2.53296875 2.24476562 -3.375 2.3125 C-4.59316406 2.39951172 -4.59316406 2.39951172 -5.8359375 2.48828125 C-8.37921338 2.82990528 -8.37921338 2.82990528 -10 6 C-12.97 5.505 -12.97 5.505 -16 5 C-16 3.68 -16 2.36 -16 1 C-8.08 0.505 -8.08 0.505 0 0 Z " fill="#E0D5CB" transform="translate(265,117)"/>
<path d="M0 0 C0.99 0 1.98 0 3 0 C3.602537 6.02536998 3.602537 6.02536998 1.88671875 8.80078125 C0.65378147 10.25599455 -0.66808933 11.63479157 -2 13 C-2.66 12.67 -3.32 12.34 -4 12 C-3.525625 11.319375 -3.05125 10.63875 -2.5625 9.9375 C-0.7774364 6.58158044 -0.36846914 3.75838519 0 0 Z " fill="#392721" transform="translate(122,266)"/>
<path d="M0 0 C0 1.65 0 3.3 0 5 C-5.625 6.125 -5.625 6.125 -9 5 C-9 4.01 -9 3.02 -9 2 C-5.86501708 0.14223235 -3.62528568 -0.20140476 0 0 Z " fill="#885933" transform="translate(269,155)"/>
<path d="M0 0 C0.33 0.66 0.66 1.32 1 2 C4.465 1.505 4.465 1.505 8 1 C8 1.66 8 2.32 8 3 C7 4 6 5 5 6 C4.67 6.99 4.34 7.98 4 9 C1.525 8.01 1.525 8.01 -1 7 C-0.34 6.01 0.32 5.02 1 4 C0.34 3.01 -0.32 2.02 -1 1 C-0.67 0.67 -0.34 0.34 0 0 Z " fill="#814E26" transform="translate(132,91)"/>
<path d="M0 0 C1.4370809 -0.05422947 2.87475462 -0.09289723 4.3125 -0.125 C5.11300781 -0.14820313 5.91351563 -0.17140625 6.73828125 -0.1953125 C9 0 9 0 12 2 C9.36 2 6.72 2 4 2 C4 3.65 4 5.3 4 7 C3.01 7.33 2.02 7.66 1 8 C0.67 5.36 0.34 2.72 0 0 Z " fill="#8D603B" transform="translate(233,150)"/>
<path d="M0 0 C0.33 0.66 0.66 1.32 1 2 C0.67 2.99 0.34 3.98 0 5 C-5.61 5 -11.22 5 -17 5 C-12.9419981 2.2946654 -9.49840187 2.57568009 -4.71484375 2.34375 C-1.85483144 2.26328612 -1.85483144 2.26328612 0 0 Z " fill="#786C6A" transform="translate(328,275)"/>
<path d="M0 0 C0.33 0.99 0.66 1.98 1 3 C0.01 4.485 0.01 4.485 -1 6 C-3.7885289 6.22107787 -6.34653181 6.28107535 -9.125 6.1875 C-9.87910156 6.17396484 -10.63320312 6.16042969 -11.41015625 6.14648438 C-13.27374127 6.11109985 -15.13695978 6.05729167 -17 6 C-12.93712051 3.29141367 -9.5051687 3.62140634 -4.71484375 3.44140625 C-3.81894531 3.29574219 -2.92304688 3.15007812 -2 3 C-1.34 2.01 -0.68 1.02 0 0 Z " fill="#7B6F6C" transform="translate(178,274)"/>
<path d="M0 0 C0 0.33 0 0.66 0 1 C-1.65 1 -3.3 1 -5 1 C-4.67 1.99 -4.34 2.98 -4 4 C-6.64 4.33 -9.28 4.66 -12 5 C-12 4.34 -12 3.68 -12 3 C-12.66 2.67 -13.32 2.34 -14 2 C-9.07262981 0.02905192 -5.21979128 -0.1799928 0 0 Z " fill="#A47352" transform="translate(224,170)"/>
<path d="M0 0 C0.33 0.99 0.66 1.98 1 3 C0.01 4.485 0.01 4.485 -1 6 C-3.7885289 6.22107787 -6.34653181 6.28107535 -9.125 6.1875 C-9.87910156 6.17396484 -10.63320313 6.16042969 -11.41015625 6.14648438 C-13.27374127 6.11109985 -15.13695978 6.05729167 -17 6 C-17 5.67 -17 5.34 -17 5 C-15.94039062 4.89042969 -14.88078125 4.78085937 -13.7890625 4.66796875 C-12.4009597 4.50852451 -11.01294302 4.34832916 -9.625 4.1875 C-8.92632812 4.11724609 -8.22765625 4.04699219 -7.5078125 3.97460938 C-5.65667662 3.75211708 -3.82461795 3.38337478 -2 3 C-1.34 2.01 -0.68 1.02 0 0 Z " fill="#726563" transform="translate(48,274)"/>
<path d="M0 0 C1.98 0 3.96 0 6 0 C5.67 3.3 5.34 6.6 5 10 C4.01 10 3.02 10 2 10 C2 7.03 2 4.06 2 1 C1.34 0.67 0.68 0.34 0 0 Z " fill="#3B2B28" transform="translate(93,268)"/>
<path d="M0 0 C2.97 0 5.94 0 9 0 C5.25 3 5.25 3 3 3 C2.34 4.65 1.68 6.3 1 8 C2.98 8 4.96 8 7 8 C7 8.33 7 8.66 7 9 C4.69 9 2.38 9 0 9 C0 6.03 0 3.06 0 0 Z " fill="#D9D2D1" transform="translate(317,259)"/>
<path d="M0 0 C0 0.66 0 1.32 0 2 C-1.32 2 -2.64 2 -4 2 C-4 2.66 -4 3.32 -4 4 C-6.64 4 -9.28 4 -12 4 C-12.33 3.01 -12.66 2.02 -13 1 C-8.60563789 0.14256349 -4.47427924 -0.08948558 0 0 Z " fill="#35201A" transform="translate(247,138)"/>
<path d="M0 0 C0.33 0 0.66 0 1 0 C1 7.92 1 15.84 1 24 C1.99 24.33 2.98 24.66 4 25 C2.35 25.33 0.7 25.66 -1 26 C-0.67 17.42 -0.34 8.84 0 0 Z " fill="#F9F9FA" transform="translate(183,158)"/>
<path d="M0 0 C0.66 0.99 1.32 1.98 2 3 C-2.84492197 4.51403812 -6.2591011 3.36602172 -11 2 C-11 1.67 -11 1.34 -11 1 C-3.52173913 -0.39130435 -3.52173913 -0.39130435 0 0 Z " fill="#A87756" transform="translate(196,154)"/>
<path d="M0 0 C0.33 0 0.66 0 1 0 C1.33 1.65 1.66 3.3 2 5 C3.32 5 4.64 5 6 5 C6.33 3.35 6.66 1.7 7 0 C7.33 0 7.66 0 8 0 C8.625 2.875 8.625 2.875 9 6 C7 8 7 8 4 8.1875 C1 8 1 8 -1 7 C-0.67 4.69 -0.34 2.38 0 0 Z " fill="#675955" transform="translate(121,295)"/>
<path d="M0 0 C0.33 0 0.66 0 1 0 C1 1.65 1 3.3 1 5 C6.61 5 12.22 5 18 5 C18 5.33 18 5.66 18 6 C12.72 6 7.44 6 2 6 C2 7.65 2 9.3 2 11 C-1.125 4.75 -1.125 4.75 0 0 Z " fill="#FCFCF9" transform="translate(235,167)"/>
<path d="M0 0 C2.64 0 5.28 0 8 0 C7.01 0.33 6.02 0.66 5 1 C5 1.66 5 2.32 5 3 C5.66 3.33 6.32 3.66 7 4 C4.03 4 1.06 4 -2 4 C-2.33 3.34 -2.66 2.68 -3 2 C-2.01 2 -1.02 2 0 2 C0 1.34 0 0.68 0 0 Z " fill="#3B2520" transform="translate(224,140)"/>
<path d="M0 0 C3.83663072 1.34929464 6.65172569 3.07751025 9.8125 5.625 C10.99779297 6.57246094 10.99779297 6.57246094 12.20703125 7.5390625 C12.79871094 8.02117187 13.39039063 8.50328125 14 9 C10.06025045 9 8.17063907 7.52210525 4.8125 5.5 C3.72582031 4.8503125 2.63914063 4.200625 1.51953125 3.53125 C0.68808594 3.0259375 -0.14335937 2.520625 -1 2 C-0.67 1.34 -0.34 0.68 0 0 Z " fill="#4B3E3B" transform="translate(202,92)"/>
<path d="M0 0 C0.33 0 0.66 0 1 0 C1.08131463 1.43655854 1.13933559 2.8744483 1.1875 4.3125 C1.22230469 5.11300781 1.25710937 5.91351563 1.29296875 6.73828125 C1 9 1 9 -0.38671875 10.79296875 C-2 12 -2 12 -4 12 C-3.67 8.37 -3.34 4.74 -3 1 C-2.67 1 -2.34 1 -2 1 C-1.67 2.98 -1.34 4.96 -1 7 C-0.67 4.69 -0.34 2.38 0 0 Z " fill="#5F4F4B" transform="translate(73,264)"/>
<path d="M0 0 C2.64 0.33 5.28 0.66 8 1 C7.67 1.99 7.34 2.98 7 4 C3.8033 5.37001429 1.30096158 4.8252404 -2 4 C-1.34 3.67 -0.68 3.34 0 3 C0 2.01 0 1.02 0 0 Z " fill="#FAFAF9" transform="translate(104,154)"/>
<path d="M0 0 C0.66 0.33 1.32 0.66 2 1 C1.67 1.33 1.34 1.66 1 2 C1.99 2.66 2.98 3.32 4 4 C3 7 3 7 0.9375 8.1875 C0.298125 8.455625 -0.34125 8.72375 -1 9 C-1.66 8.01 -2.32 7.02 -3 6 C-2.34 6 -1.68 6 -1 6 C-1.0309375 4.7934375 -1.0309375 4.7934375 -1.0625 3.5625 C-1 1 -1 1 0 0 Z " fill="#F1EFEC" transform="translate(168,76)"/>
<path d="M0 0 C0.33 1.32 0.66 2.64 1 4 C1.66 4 2.32 4 3 4 C2.79375 4.61875 2.5875 5.2375 2.375 5.875 C2.25125 6.57625 2.1275 7.2775 2 8 C2.66 8.66 3.32 9.32 4 10 C3.34 10.66 2.68 11.32 2 12 C1.01 12 0.02 12 -1 12 C-0.67 8.04 -0.34 4.08 0 0 Z " fill="#653413" transform="translate(243,186)"/>
<path d="M0 0 C0.33 0.66 0.66 1.32 1 2 C-0.74818591 2.22304441 -2.49870323 2.4278645 -4.25 2.625 C-5.22453125 2.74101562 -6.1990625 2.85703125 -7.203125 2.9765625 C-10.13429393 3.00112537 -11.54528964 2.5312717 -14 1 C-9.23692563 0.04738513 -4.8333472 -0.08333357 0 0 Z " fill="#E8DBD1" transform="translate(234,172)"/>
<path d="M0 0 C1.65 0 3.3 0 5 0 C5.33 0.99 5.66 1.98 6 3 C6.66 3.66 7.32 4.32 8 5 C7.34 5.66 6.68 6.32 6 7 C3.69 5.35 1.38 3.7 -1 2 C-0.67 1.34 -0.34 0.68 0 0 Z " fill="#F5F3EE" transform="translate(227,88)"/>
<path d="M0 0 C1.32 0 2.64 0 4 0 C4.042721 1.66611905 4.04063832 3.33382885 4 5 C3 6 3 6 -0.5625 6.0625 C-1.696875 6.041875 -2.83125 6.02125 -4 6 C-4.33 5.01 -4.66 4.02 -5 3 C-2.36 3.33 0.28 3.66 3 4 C2.01 2.68 1.02 1.36 0 0 Z " fill="#453734" transform="translate(88,297)"/>
<path d="M0 0 C2 2 2 2 2.125 5.125 C2.08375 6.07375 2.0425 7.0225 2 8 C0.02 8.33 -1.96 8.66 -4 9 C-3.67 7.68 -3.34 6.36 -3 5 C-3 5.66 -3 6.32 -3 7 C-2.34 7 -1.68 7 -1 7 C-0.67 4.69 -0.34 2.38 0 0 Z " fill="#704629" transform="translate(149,219)"/>
<path d="M0 0 C4.29 0 8.58 0 13 0 C13 1.98 13 3.96 13 6 C12.505 5.34 12.01 4.68 11.5 4 C7.89659788 1.1172783 5.53014958 1.69799003 1 2 C0.67 1.34 0.34 0.68 0 0 Z " fill="#5F5551" transform="translate(85,258)"/>
<path d="M0 0 C1.98 0.99 1.98 0.99 4 2 C3.34 4.31 2.68 6.62 2 9 C1.34 9 0.68 9 0 9 C0 6.03 0 3.06 0 0 Z " fill="#F4F4F3" transform="translate(294,270)"/>
<path d="M0 0 C2.13586678 3.20380017 2.23132175 4.01939967 2.125 7.6875 C2.10695313 8.49574219 2.08890625 9.30398437 2.0703125 10.13671875 C2.04710938 10.75160156 2.02390625 11.36648437 2 12 C1.67 11.01 1.34 10.02 1 9 C0.34 9 -0.32 9 -1 9 C-0.67 6.03 -0.34 3.06 0 0 Z " fill="#643613" transform="translate(123,220)"/>
<path d="M0 0 C0.66 0.66 1.32 1.32 2 2 C1.9765625 4.1640625 1.9765625 4.1640625 1.625 6.625 C1.51414062 7.44226563 1.40328125 8.25953125 1.2890625 9.1015625 C1.19367188 9.72804687 1.09828125 10.35453125 1 11 C0.67 10.01 0.34 9.02 0 8 C-0.66 8 -1.32 8 -2 8 C-1.33333333 5.33333333 -0.66666667 2.66666667 0 0 Z " fill="#8A5D39" transform="translate(92,200)"/>
<path d="M0 0 C10.59892638 -0.20782209 10.59892638 -0.20782209 13.8125 2.5625 C14.204375 3.036875 14.59625 3.51125 15 4 C11.625 4.125 11.625 4.125 8 4 C7.34 3.34 6.68 2.68 6 2 C4.01178687 1.60235737 2.01055661 1.26224651 0 1 C0 0.67 0 0.34 0 0 Z " fill="#4B3A36" transform="translate(142,153)"/>
<path d="M0 0 C0.53625 0.825 1.0725 1.65 1.625 2.5 C3.80271869 5.33951208 3.80271869 5.33951208 7.25 5.3125 C8.1575 5.209375 9.065 5.10625 10 5 C10 5.66 10 6.32 10 7 C6.8125 7.3125 6.8125 7.3125 3 7 C0.0625 4.5 0.0625 4.5 -2 2 C-1.34 2 -0.68 2 0 2 C0 1.34 0 0.68 0 0 Z " fill="#50403E" transform="translate(108,273)"/>
<path d="M0 0 C0.33 0 0.66 0 1 0 C1.33 1.98 1.66 3.96 2 6 C2.33 6 2.66 6 3 6 C3 7.98 3 9.96 3 12 C2.01 12 1.02 12 0 12 C0 8.04 0 4.08 0 0 Z " fill="#3E2C28" transform="translate(314,267)"/>
<path d="M0 0 C0.33 0.66 0.66 1.32 1 2 C1.66 2 2.32 2 3 2 C3.99 3.98 4.98 5.96 6 8 C4.68 8 3.36 8 2 8 C0.93224776 6.03533587 -0.06553465 4.03144641 -1 2 C-0.67 1.34 -0.34 0.68 0 0 Z " fill="#46352F" transform="translate(194,267)"/>
<path d="M0 0 C2.97 0 5.94 0 9 0 C8.01 1.485 8.01 1.485 7 3 C5.0546875 3.29296875 5.0546875 3.29296875 2.875 3.1875 C1.59625 3.125625 0.3175 3.06375 -1 3 C-0.67 2.01 -0.34 1.02 0 0 Z " fill="#885831" transform="translate(121,162)"/>
<path d="M0 0 C2.31 0 4.62 0 7 0 C7 0.33 7 0.66 7 1 C8.65 1.33 10.3 1.66 12 2 C12 2.33 12 2.66 12 3 C7.545 3.495 7.545 3.495 3 4 C3 3.34 3 2.68 3 2 C2.01 1.34 1.02 0.68 0 0 Z " fill="#DBCCC4" transform="translate(165,155)"/>
<path d="M0 0 C0 0.99 0 1.98 0 3 C-1.98 3.33 -3.96 3.66 -6 4 C-6.33 3.01 -6.66 2.02 -7 1 C-4 0 -4 0 0 0 Z " fill="#FBFDFB" transform="translate(216,147)"/>
<path d="M0 0 C1.15774508 3.47323524 1 6.35812299 1 10 C1.33 10.66 1.66 11.32 2 12 C0.68 11.67 -0.64 11.34 -2 11 C-2 7.07103605 -0.99700137 3.80106772 0 0 Z " fill="#473531" transform="translate(254,126)"/>
<path d="M0 0 C0.33 0.66 0.66 1.32 1 2 C2.32 2 3.64 2 5 2 C5 2.99 5 3.98 5 5 C5.66 5.33 6.32 5.66 7 6 C4.69 6 2.38 6 0 6 C0 4.02 0 2.04 0 0 Z " fill="#73472B" transform="translate(121,227)"/>
<path d="M0 0 C0 2.64 0 5.28 0 8 C-0.99 8 -1.98 8 -3 8 C-3.6875 5.6875 -3.6875 5.6875 -4 3 C-1.72413793 0 -1.72413793 0 0 0 Z " fill="#A6724F" transform="translate(239,192)"/>
<path d="M0 0 C1.98 0 3.96 0 6 0 C6 0.66 6 1.32 6 2 C5.01 2.495 5.01 2.495 4 3 C4.66 3.66 5.32 4.32 6 5 C3.03 4.505 3.03 4.505 0 4 C0 2.68 0 1.36 0 0 Z " fill="#473430" transform="translate(218,140)"/>
<path d="M0 0 C0.99 0 1.98 0 3 0 C3 0.66 3 1.32 3 2 C5.97 2 8.94 2 12 2 C12 2.33 12 2.66 12 3 C7.38 3 2.76 3 -2 3 C-1.34 2.01 -0.68 1.02 0 0 Z " fill="#7B4B25" transform="translate(98,115)"/>
<path d="M0 0 C2.64 0 5.28 0 8 0 C5 1.5 5 1.5 2 3 C1.34227572 6.02934491 1.34227572 6.02934491 1 9 C0.67 9 0.34 9 0 9 C0 6.03 0 3.06 0 0 Z " fill="#D3CAC8" transform="translate(271,269)"/>
<path d="M0 0 C0.66 0.33 1.32 0.66 2 1 C2 3.64 2 6.28 2 9 C1.01 9.495 1.01 9.495 0 10 C-0.19412181 8.52168779 -0.38012131 7.04230684 -0.5625 5.5625 C-0.66691406 4.73878906 -0.77132812 3.91507812 -0.87890625 3.06640625 C-0.91886719 2.38449219 -0.95882812 1.70257813 -1 1 C-0.67 0.67 -0.34 0.34 0 0 Z " fill="#341F19" transform="translate(71,262)"/>
<path d="M0 0 C8.19256018 -0.63019694 8.19256018 -0.63019694 11.5625 2 C12.036875 2.66 12.51125 3.32 13 4 C12.01 4.33 11.02 4.66 10 5 C9.34 4.01 8.68 3.02 8 2 C4.41642759 1.74984127 4.41642759 1.74984127 1 2 C0.67 1.34 0.34 0.68 0 0 Z " fill="#524241" transform="translate(59,258)"/>
<path d="M0 0 C0 0.66 0 1.32 0 2 C0.99 2 1.98 2 3 2 C3 2.66 3 3.32 3 4 C-0.63 3.34 -4.26 2.68 -8 2 C-8 1.67 -8 1.34 -8 1 C-5.23735711 0.40267181 -2.83967231 0 0 0 Z " fill="#8D603F" transform="translate(272,172)"/>
<path d="M0 0 C1 4 1 4 1 4 Z M0 4 C0 5.32 0 6.64 0 8 C-0.99 8 -1.98 8 -3 8 C-3 7.34 -3 6.68 -3 6 C-4.65 6 -6.3 6 -8 6 C-8 5.67 -8 5.34 -8 5 C-2.25 4 -2.25 4 0 4 Z " fill="#DAD1CD" transform="translate(263,149)"/>
<path d="M0 0 C0.33 1.65 0.66 3.3 1 5 C0.34 5 -0.32 5 -1 5 C-1.33 4.34 -1.66 3.68 -2 3 C-2.99 3.495 -2.99 3.495 -4 4 C-4 3.34 -4 2.68 -4 2 C-4.99 1.67 -5.98 1.34 -7 1 C-4.53721199 -0.231394 -2.7204945 -0.07159196 0 0 Z " fill="#D6D1D1" transform="translate(209,258)"/>
<path d="M0 0 C3.3 0 6.6 0 10 0 C10 1.65 10 3.3 10 5 C8.68 4.34 7.36 3.68 6 3 C6 2.34 6 1.68 6 1 C4.02 1 2.04 1 0 1 C0 0.67 0 0.34 0 0 Z " fill="#734A2C" transform="translate(146,161)"/>
<path d="M0 0 C1.32 0.66 2.64 1.32 4 2 C3.67 2.66 3.34 3.32 3 4 C0.36 4 -2.28 4 -5 4 C-4.0409375 3.8453125 -4.0409375 3.8453125 -3.0625 3.6875 C-2.381875 3.460625 -1.70125 3.23375 -1 3 C-0.67 2.01 -0.34 1.02 0 0 Z " fill="#402E28" transform="translate(197,146)"/>
<path d="M0 0 C3.465 1.98 3.465 1.98 7 4 C6.34 4.66 5.68 5.32 5 6 C2.375 5.625 2.375 5.625 0 5 C0.66 4.67 1.32 4.34 2 4 C2 3.34 2 2.68 2 2 C1.34 2 0.68 2 0 2 C0 1.34 0 0.68 0 0 Z " fill="#885A36" transform="translate(219,85)"/>
<path d="M0 0 C1.65 0 3.3 0 5 0 C5.33 0.99 5.66 1.98 6 3 C4.02 3 2.04 3 0 3 C0 2.01 0 1.02 0 0 Z " fill="#E4E2DF" transform="translate(85,298)"/>
<path d="M0 0 C0.66 0 1.32 0 2 0 C1.43628586 3.26954202 0.50037734 4.82575883 -2 7 C-2.66 6.67 -3.32 6.34 -4 6 C-2.7260411 3.96166576 -1.38938077 1.96147874 0 0 Z " fill="#43302D" transform="translate(122,272)"/>
<path d="M0 0 C0.66 0 1.32 0 2 0 C2 1.98 2 3.96 2 6 C1.01 6 0.02 6 -1 6 C-1.042721 4.33388095 -1.04063832 2.66617115 -1 1 C-0.67 0.67 -0.34 0.34 0 0 Z " fill="#33211C" transform="translate(80,267)"/>
<path d="M0 0 C0.33 0 0.66 0 1 0 C0.67 2.97 0.34 5.94 0 9 C-0.66 9 -1.32 9 -2 9 C-1.125 1.125 -1.125 1.125 0 0 Z " fill="#7A5034" transform="translate(125,209)"/>
<path d="M0 0 C0.33 0 0.66 0 1 0 C1.33 2.97 1.66 5.94 2 9 C1.01 9.66 0.02 10.32 -1 11 C-0.67 7.37 -0.34 3.74 0 0 Z " fill="#764D2E" transform="translate(132,163)"/>
<path d="M0 0 C0.99 0 1.98 0 3 0 C3 0.99 3 1.98 3 3 C2.34 3 1.68 3 1 3 C1 3.99 1 4.98 1 6 C0.01 6.33 -0.98 6.66 -2 7 C-1.34 4.69 -0.68 2.38 0 0 Z " fill="#926B4C" transform="translate(85,151)"/>
<path d="M0 0 C0.33 0.99 0.66 1.98 1 3 C1.99 3.66 2.98 4.32 4 5 C-1.53846154 4.38461538 -1.53846154 4.38461538 -3.875 2.4375 C-4.24625 1.963125 -4.6175 1.48875 -5 1 C-3 0 -3 0 0 0 Z " fill="#473530" transform="translate(211,142)"/>
<path d="M0 0 C0.66 0.99 1.32 1.98 2 3 C0.68 3 -0.64 3 -2 3 C-1.34 2.01 -0.68 1.02 0 0 Z M-5 2 C-3.02 2.99 -3.02 2.99 -1 4 C-1.33 4.99 -1.66 5.98 -2 7 C-3.5 5.625 -3.5 5.625 -5 4 C-5 3.34 -5 2.68 -5 2 Z " fill="#824D23" transform="translate(227,93)"/>
<path d="M0 0 C2.1875 0.3125 2.1875 0.3125 4 1 C2.68 2.32 1.36 3.64 0 5 C-0.99 4.34 -1.98 3.68 -3 3 C-1.75 1.4375 -1.75 1.4375 0 0 Z " fill="#F0EDE7" transform="translate(129,89)"/>
<path d="M0 0 C0.66 0.99 1.32 1.98 2 3 C-0.475 4.485 -0.475 4.485 -3 6 C-3.33 4.35 -3.66 2.7 -4 1 C-2.68 0.67 -1.36 0.34 0 0 Z " fill="#8C5D38" transform="translate(164,76)"/>
<path d="M0 0 C2.475 0.99 2.475 0.99 5 2 C4.34 2.66 3.68 3.32 3 4 C-0.125 3.625 -0.125 3.625 -3 3 C-2.01 2.01 -1.02 1.02 0 0 Z " fill="#8D5F3B" transform="translate(179,57)"/>
<path d="M0 0 C0.33 0.99 0.66 1.98 1 3 C3.31 3 5.62 3 8 3 C7.67 3.66 7.34 4.32 7 5 C6.05125 4.979375 5.1025 4.95875 4.125 4.9375 C1.09333717 4.77448174 1.09333717 4.77448174 -1 6 C-0.67 4.02 -0.34 2.04 0 0 Z " fill="#5A4B47" transform="translate(161,297)"/>
<path d="M0 0 C0.33 0 0.66 0 1 0 C1 2.31 1 4.62 1 7 C0.34 6.34 -0.32 5.68 -1 5 C-3.32275177 4.59952556 -5.65739357 4.2602896 -8 4 C-8 3.67 -8 3.34 -8 3 C-6.865625 2.87625 -5.73125 2.7525 -4.5625 2.625 C-3.386875 2.41875 -2.21125 2.2125 -1 2 C-0.67 1.34 -0.34 0.68 0 0 Z " fill="#564949" transform="translate(325,265)"/>
<path d="M0 0 C0.66 1.32 1.32 2.64 2 4 C1.01 4 0.02 4 -1 4 C-1 6.31 -1 8.62 -1 11 C-1.33 11 -1.66 11 -2 11 C-2 8.03 -2 5.06 -2 2 C-1.34 2 -0.68 2 0 2 C0 1.34 0 0.68 0 0 Z " fill="#6F625E" transform="translate(123,262)"/>
<path d="M0 0 C2.31 0 4.62 0 7 0 C6.34 1.65 5.68 3.3 5 5 C4.34 5 3.68 5 3 5 C2.67 4.01 2.34 3.02 2 2 C1.34 1.34 0.68 0.68 0 0 Z " fill="#463833" transform="translate(253,258)"/>
<path d="M0 0 C4.75 0.75 4.75 0.75 7 3 C7 3.99 7 4.98 7 6 C3.31197956 4.77065985 2.27643027 3.06140622 0 0 Z " fill="#453833" transform="translate(116,258)"/>
<path d="M0 0 C0.66 0.66 1.32 1.32 2 2 C1.96712417 4.72869407 1.43602229 7.2966618 1 10 C-1.56687367 6.1496895 -0.83288724 4.41430237 0 0 Z " fill="#E2D1C4" transform="translate(95,198)"/>
<path d="M0 0 C0.99 0 1.98 0 3 0 C3.33 2.31 3.66 4.62 4 7 C3.01 6.67 2.02 6.34 1 6 C0.67 4.02 0.34 2.04 0 0 Z " fill="#A57451" transform="translate(120,197)"/>
<path d="M0 0 C-4.43076923 3.07692308 -4.43076923 3.07692308 -7.3125 2.6875 C-8.1478125 2.3471875 -8.1478125 2.3471875 -9 2 C-8.34 2 -7.68 2 -7 2 C-7 1.34 -7 0.68 -7 0 C-3.86650268 -1.04449911 -3.01031744 -0.93423645 0 0 Z " fill="#8A5D39" transform="translate(100,187)"/>
<path d="M0 0 C0.66 0 1.32 0 2 0 C2.66 2.64 3.32 5.28 4 8 C3.01 7.67 2.02 7.34 1 7 C0.67 4.69 0.34 2.38 0 0 Z " fill="#8E613E" transform="translate(286,170)"/>
<path d="M0 0 C1.65 0 3.3 0 5 0 C5 1.32 5 2.64 5 4 C3.35 4 1.7 4 0 4 C0 2.68 0 1.36 0 0 Z " fill="#331F1A" transform="translate(163,151)"/>
<path d="M0 0 C0 0.99 0 1.98 0 3 C-1 4 -1 4 -4.0625 4.0625 C-5.5165625 4.0315625 -5.5165625 4.0315625 -7 4 C-4.82575883 1.49962266 -3.26954202 0.56371414 0 0 Z " fill="#865530" transform="translate(155,76)"/>
<path d="M0 0 C1.32 1.32 2.64 2.64 4 4 C3.34 4.66 2.68 5.32 2 6 C1.34 6 0.68 6 0 6 C0 5.34 0 4.68 0 4 C-0.66 4 -1.32 4 -2 4 C-2 3.34 -2 2.68 -2 2 C-1.34 2 -0.68 2 0 2 C0 1.34 0 0.68 0 0 Z " fill="#804E24" transform="translate(192,66)"/>
</svg>
